<?xml version="1.0" encoding="UTF-8"?>
<!DOCTYPE svg PUBLIC "-//W3C//DTD SVG 1.1//EN" "http://www.w3.org/Graphics/SVG/1.1/DTD/svg11.dtd">
<!-- Creator: CorelDRAW -->
<svg xmlns="http://www.w3.org/2000/svg" xml:space="preserve" width="192.883mm" height="46.6939mm" version="1.1" style="shape-rendering:geometricPrecision; text-rendering:geometricPrecision; image-rendering:optimizeQuality; fill-rule:evenodd; clip-rule:evenodd"
viewBox="0 0 19280.02 4667.38"
 xmlns:xlink="http://www.w3.org/1999/xlink">
 <defs>
  <style type="text/css">
   <![CDATA[
    .fil2 {fill:white}
    .fil1 {fill:#645194}
    .fil3 {fill:#645194;fill-rule:nonzero}
    .fil0 {fill:url(#id0)}
    .fil4 {fill:url(#id1)}
   ]]>
  </style>
  <linearGradient id="id0" gradientUnits="userSpaceOnUse" x1="2333.72" y1="-2875.9" x2="2333.72" y2="6160.17">
   <stop offset="0" style="stop-opacity:1; stop-color:#93278F"/>
   <stop offset="1" style="stop-opacity:1; stop-color:#00A99D"/>
  </linearGradient>
  <linearGradient id="id1" gradientUnits="userSpaceOnUse" xlink:href="#id0" x1="2333.7" y1="-2977.13" x2="2333.7" y2="6506.73">
  </linearGradient>
 </defs>
 <g id="Layer_x0020_1">
  <metadata id="CorelCorpID_0Corel-Layer"/>
  <g id="_105553336131232">
   <path class="fil0" d="M1093.81 1956.89c0,54.54 -44.31,98.85 -98.77,98.85 -54.42,0 -98.69,-44.31 -98.7,-98.85 0,-54.38 44.26,-98.7 98.7,-98.68 54.46,-0.02 98.77,44.3 98.77,98.68zm1302.35 398.1c54.47,9.78 104.59,32.08 147.26,63.83l149.65 -156.22 0 -252.48c-94.06,-27.31 -160.91,-115.13 -160.92,-214.06 0,-134.5 119.65,-241.53 258.07,-220.43 79.03,12.01 147.09,68.11 174.38,143.17 46.23,127.3 -29.03,256.97 -147.18,291.31l0 122.56 520.11 -543.14c-21.18,-34.76 -32.33,-74.32 -32.33,-115.37 0,-124.21 102,-225.01 226.63,-223.05 124.89,1.96 229.09,117.17 218.76,241.61 -9.51,114.47 -105.6,204.65 -222.4,204.65 -34.34,0 -68.37,-8.09 -99.15,-23.46l-528.06 551.3 370.98 0 198.1 -174.15c-13.63,-29.19 -20.83,-61.39 -20.83,-94.18 0,-138.67 127.28,-248.23 271.21,-217.98 84.16,17.73 152.23,85.76 169.87,169.99 30.2,143.9 -79.31,271.11 -218,271.11 -42.88,0 -84.06,-12.18 -120.05,-35.32l-177.71 155.88 95.06 165.91c63.17,-33.42 139.94,-35.61 208.6,-0.29 58.78,30.25 101.41,87.47 114.25,152.34 31.69,160.29 -109.99,298.99 -271.07,262.14 -47.12,-10.8 -90.06,-37.82 -120.19,-75.63 -60.83,-76.28 -64.57,-172.42 -23.09,-248.13l-118.8 -207.27 -477.42 -0.01 -153.22 159.93c35.89,55.15 56.78,120.95 56.78,191.66 0,82.62 -28.52,158.61 -76.23,218.65l0 772.4 -124.35 0 0 -673.36c-27.76,13.23 -57.51,22.94 -88.69,28.54l0 644.84 -125.05 0.22 0 -645.07c-31.14,-5.59 -60.84,-15.29 -88.56,-28.49l0 674.05 -124.44 -1.12 0 -772.02c-47.7,-60.03 -76.21,-136.01 -76.21,-218.64 0,-70.69 20.86,-136.51 56.77,-191.65l-153.23 -159.93 -477.33 0 -118.82 207.27c41.69,76.33 37.56,173.13 -24.27,249.36 -30.57,37.68 -73.86,64.52 -121.26,74.9 -160.6,35.17 -301.19,-103.94 -268.51,-264.09 13.18,-64.66 56.05,-121.5 114.89,-151.38 68.5,-34.81 144.74,-32.49 207.62,0.78l95 -165.91 -177.63 -155.88c-36.07,23.13 -77.3,35.32 -120.08,35.32 -138.72,0 -248.26,-127.3 -218.03,-271.2 17.69,-84.13 85.76,-152.24 169.96,-169.9 143.93,-30.18 271.19,79.31 271.19,217.98 0,32.62 -7.19,64.91 -20.9,94.18l198.19 174.15 370.94 0 -528.09 -551.3c-90.5,45.13 -208.42,27.31 -281.52,-73.01 -18.24,-24.94 -31.29,-53.97 -36.93,-84.37 -27.78,-149.97 95.76,-280.12 244.1,-264.1 95.71,10.39 176.4,84.13 194.2,178.73 10.54,56 0.24,111.6 -28.29,158.37l520.11 543.14 0 -122.56c-94.11,-27.31 -160.97,-115.13 -160.97,-214.06 0,-134.5 119.64,-241.61 258.12,-220.43 78.97,12.09 147.04,68.11 174.33,143.16 46.28,127.23 -28.98,256.98 -147.15,291.32l0 252.48 149.66 156.2c42.65,-31.74 92.73,-54.03 147.17,-63.79l0 -613.73 -431.19 -520.66c-28.59,10.23 -58.92,14.39 -90.21,12.26 -99.91,-6.78 -185.76,-82.81 -203.5,-181.35 -28.54,-158.53 111.65,-294.58 271.12,-258.44 63.17,14.3 118.09,57.23 146.99,115.29 40.87,81.99 28.57,173.25 -23.39,239.32l330.19 398.66 0 -675.59c-118.44,-34.59 -193.77,-165.17 -146.48,-292.79 27.79,-75.06 96.4,-130.74 175.61,-142.1 138.28,-19.87 256.83,86.83 256.83,220.68 0,98.93 -66.92,186.82 -160.92,214.22l0 675.59 330.29 -398.68c-52.03,-66.13 -64.27,-157.46 -23.29,-239.55 28.94,-57.98 83.92,-100.83 147.09,-115.12 159.36,-35.9 299.5,100.07 270.92,258.62 -17.79,98.52 -103.66,174.48 -203.51,181.25 -31.24,2.13 -61.57,-2.04 -90.2,-12.26l-431.29 520.66 0 613.71zm44.11 1706.64c-32.58,-13.4 -77.65,-17.46 -107.52,-18.1 -27.48,-0.61 -81.72,0.06 -105.71,9.94 3.91,17.1 56.28,106.01 71.25,134.88 5,9.67 16.52,40.76 30.04,44.61 23.24,6.62 32.22,-24.07 38.08,-34.87l73.87 -136.46zm-248.89 -71.46c37.93,-10.95 111.48,-15.87 140.21,-14.46 49.39,2.42 84.27,7.22 140.1,21.07l138.25 -258.44 -143.23 -0.06 -276.42 0 0 -0.1 -132.91 -0.06 134 252.05zm-999.05 -1326.47c0,54.43 -44.28,98.72 -98.72,98.72 -54.46,0 -98.76,-44.29 -98.76,-98.73 0,-54.49 44.3,-98.82 98.76,-98.82 54.44,0 98.72,44.33 98.72,98.83zm1610.8 -1653.36c0,-54.46 44.26,-98.68 98.69,-98.68 54.38,0 98.66,44.22 98.66,98.68 0,54.38 -44.28,98.69 -98.65,98.69 -54.44,0 -98.7,-44.32 -98.7,-98.69zm-370.98 -353.78c0,54.37 -44.19,98.6 -98.42,98.68 -54.31,-0.08 -98.5,-44.31 -98.5,-98.68 0,-54.21 44.19,-98.45 98.45,-98.61 54.28,0.16 98.47,44.4 98.47,98.61zm-567.86 353.78c0.01,54.38 -44.31,98.69 -98.79,98.69 -54.43,0 -98.7,-44.31 -98.7,-98.69 0,-54.46 44.27,-98.68 98.7,-98.68 54.48,0 98.79,44.22 98.79,98.68zm47.84 687.03c54.44,0 98.7,44.24 98.7,98.69 0,54.38 -44.26,98.69 -98.7,98.69 -54.48,0 -98.76,-44.31 -98.76,-98.69 0,-54.45 44.28,-98.68 98.76,-98.69zm-674.23 -223.2c0,54.46 -44.28,98.77 -98.72,98.77 -54.48,0 -98.81,-44.31 -98.81,-98.77 0,-54.45 44.33,-98.77 98.81,-98.77 54.44,0 98.72,44.32 98.72,98.77zm2191.62 0c0,-54.45 44.23,-98.77 98.66,-98.77 54.43,0.01 98.75,44.32 98.75,98.77 0,54.46 -44.32,98.77 -98.75,98.77 -54.43,0 -98.65,-44.31 -98.66,-98.77zm-575.53 321.89c0,54.38 -44.28,98.69 -98.71,98.69 -54.42,0 -98.7,-44.31 -98.7,-98.69 0,-54.45 44.28,-98.69 98.7,-98.69 54.43,0 98.71,44.24 98.71,98.69zm719.52 160.83c0,-54.38 44.32,-98.7 98.8,-98.7 54.44,0 98.77,44.32 98.77,98.7 0,54.54 -44.33,98.85 -98.77,98.85 -54.48,0 -98.8,-44.31 -98.8,-98.85zm0.25 607.98c54.43,0 98.71,44.33 98.71,98.83 0,54.43 -44.28,98.72 -98.72,98.72 -54.43,0 -98.75,-44.28 -98.75,-98.73 0,-54.49 44.32,-98.82 98.76,-98.82z"/>
   <circle class="fil1" cx="2334.09" cy="2701.19" r="351.76"/>
   <path class="fil2" d="M2356.24 2762.23c11.1,3 26.73,11.44 32.83,17.07 3.3,3.06 7.59,9.19 10.28,14.28 16.93,32.2 -13.7,63.09 -43.12,69.3l0.02 -100.66zm-45.33 -96.5c-5.24,-2.37 -11.11,-5.98 -16,-9.06l-14.62 -9.94c-38.17,-31.21 -6.51,-75.31 30.8,-83.3l-0.17 102.3zm45.29 -101.71c16.38,3.53 31.19,15.24 37.91,24.31 15.67,21.15 5.53,32.32 16.05,45.67 8.43,10.69 25.3,18.53 45.63,13.92 15.08,-3.42 28.84,-14.86 28.57,-32.57 -0.59,-40.8 -26.3,-73.99 -59.71,-94.07 -18.85,-11.32 -45.89,-21.85 -68.43,-23.48 -0.06,-14.16 0.48,-20.16 -0.01,-34.23 -0.4,-11.49 -10.66,-20.17 -22.81,-20.04 -12.42,0.12 -21.97,8.77 -22.32,20.69 -0.41,13.91 0.49,19.37 -0.09,33.25 -45.1,4.41 -94.28,30.43 -116.92,71.18 -7.92,14.22 -12.83,31.97 -11.32,50.93 1.95,24.18 11.86,43.44 27.74,58.34 9.23,8.68 29.77,22.2 40.75,29.4 6.09,3.99 12.73,7.7 19.25,11.64 6.44,3.89 13.15,7.79 20.17,11.39 5.39,2.77 15.08,8.81 20.4,10.49l-0.03 121.5c-17.59,-4.37 -29.24,-14.1 -37.67,-24.17 -14.77,-17.66 -6.22,-32.31 -15.75,-45.3 -16.79,-22.89 -60.38,-20.36 -72.12,5.03 -1.84,3.98 -2.53,7.64 -2.53,12.49 -0.01,66.63 67.32,111.17 127.71,118.19 1.7,6.94 0.15,26.94 0.41,36.24 0.81,27.31 44.23,27.19 45.13,0.61 0.48,-13.95 0,-22.53 0.01,-36.59 33.34,-2.34 69.86,-20.95 88.29,-36.82 11.45,-9.85 19.79,-18.6 28.54,-33.88 7.81,-13.64 12.82,-31.47 11.63,-50.01 -1.26,-19.42 -7.96,-33.1 -15.88,-46.81 -5.95,-10.28 -13.62,-17.59 -21.87,-25.16 -2.08,-1.9 -2.28,-1.89 -4.32,-3.4 -14.2,-10.37 -26.29,-17.83 -44.07,-26.08 -7.26,-3.38 -14,-6.28 -21.32,-9.55l-16.07 -7.08c-2.36,-1.05 -3.66,-1.05 -4.93,-3.14l-0.01 -122.91z"/>
  </g>
  <g id="_105553336136352">
   <path class="fil3" d="M6167.72 1071.18l-336.61 0 -57.84 164.25 -137.64 0 288.02 -805.07 152.68 0 288.03 805.07 -138.81 0 -57.84 -164.25zm-37.01 -107.57l-130.7 -373.62 -131.87 373.62 262.58 0zm490.45 -272.99c19.28,-32.39 44.92,-57.64 76.93,-75.76 32,-18.12 69.98,-27.19 113.93,-27.19l0 136.49 -33.55 0c-51.67,0 -90.8,13.11 -117.4,39.33 -26.61,26.22 -39.91,71.72 -39.91,136.49l0 335.45 -131.86 0 0 -637.35 131.86 0 0 92.53zm379.41 -176.97c-23.91,0 -43.96,-8.1 -60.15,-24.29 -16.19,-16.19 -24.29,-36.24 -24.29,-60.15 0,-23.9 8.1,-43.95 24.29,-60.14 16.19,-16.19 36.24,-24.29 60.15,-24.29 23.13,0 42.8,8.1 58.99,24.29 16.19,16.19 24.29,36.24 24.29,60.14 0,23.91 -8.1,43.96 -24.29,60.15 -16.19,16.19 -35.86,24.29 -58.99,24.29zm64.77 846.72c0,62.46 -15.61,107.76 -46.84,135.91 -31.24,28.15 -76.54,42.22 -135.92,42.22l-68.24 0 0 -111.04 45.11 0c26.99,0 46.07,-5.21 57.26,-15.62 11.19,-10.41 16.77,-27.57 16.77,-51.47l0 -762.27 131.86 0 0 762.27zm750.71 -762.27l0 637.35 -131.86 0 0 -75.19c-20.82,26.22 -48.01,46.85 -81.55,61.88 -33.55,15.04 -69.21,22.56 -106.99,22.56 -50.12,0 -95.04,-10.42 -134.75,-31.24 -39.71,-20.82 -70.95,-51.67 -93.7,-92.53 -22.75,-40.87 -34.13,-90.23 -34.13,-148.07l0 -374.77 130.71 0 0 355.11c0,57.07 14.26,100.83 42.8,131.28 28.53,30.47 67.47,45.69 116.82,45.69 49.36,0 88.49,-15.22 117.41,-45.69 28.92,-30.46 43.38,-74.22 43.38,-131.28l0 -355.11 131.86 0zm495.08 -10.42c50.12,0 95.04,10.42 134.75,31.24 39.71,20.82 70.75,51.67 93.12,92.53 22.36,40.87 33.54,90.23 33.54,148.07l0 375.93 -130.7 0 0 -356.27c0,-57.07 -14.26,-100.83 -42.8,-131.28 -28.53,-30.47 -67.47,-45.69 -116.83,-45.69 -49.35,0 -88.48,15.22 -117.4,45.69 -28.92,30.46 -43.38,74.22 -43.38,131.28l0 356.27 -131.86 0 0 -637.35 131.86 0 0 72.87c21.59,-26.22 49.16,-46.65 82.7,-61.3 33.55,-14.65 69.21,-21.98 107,-21.98zm1292.03 83.28c0,40.87 -9.64,79.43 -28.92,115.67 -19.27,36.24 -50.12,65.74 -92.53,88.49 -42.41,22.75 -96.78,34.13 -163.1,34.13l-145.75 0 0 326.19 -131.86 0 0 -803.91 277.61 0c61.69,0 113.94,10.61 156.73,31.81 42.8,21.21 74.81,49.94 96.01,86.17 21.21,36.24 31.81,76.74 31.81,121.46zm-284.55 130.71c50.13,0 87.52,-11.38 112.2,-34.13 24.68,-22.75 37.01,-54.95 37.01,-96.59 0,-87.91 -49.74,-131.86 -149.22,-131.86l-145.75 0 0 262.58 145.75 0zm366.68 112.2c0,-64.01 13.29,-120.69 39.9,-170.04 26.61,-49.36 62.85,-87.72 108.73,-115.1 45.88,-27.37 96.59,-41.06 152.1,-41.06 50.13,0 93.89,9.84 131.28,29.5 37.4,19.66 67.29,44.15 89.65,73.45l0 -92.53 133.02 0 0 637.35 -133.02 0 0 -94.85c-22.36,30.08 -52.83,55.14 -91.38,75.19 -38.55,20.05 -82.51,30.07 -131.86,30.07 -54.76,0 -104.87,-14.06 -150.38,-42.21 -45.5,-28.15 -81.54,-67.48 -108.15,-117.99 -26.61,-50.51 -39.9,-107.76 -39.9,-171.77zm521.68 2.31c0,-43.95 -9.07,-82.12 -27.19,-114.51 -18.12,-32.4 -41.83,-57.07 -71.13,-74.04 -29.31,-16.96 -60.92,-25.44 -94.86,-25.44 -33.93,0 -65.54,8.29 -94.85,24.87 -29.3,16.57 -53.02,40.86 -71.14,72.87 -18.11,32.01 -27.18,69.98 -27.18,113.94 0,43.95 9.07,82.5 27.18,115.67 18.12,33.16 42.03,58.41 71.72,75.76 29.69,17.35 61.11,26.03 94.27,26.03 33.94,0 65.55,-8.49 94.86,-25.45 29.3,-16.96 53.01,-41.83 71.13,-74.61 18.12,-32.78 27.19,-71.14 27.19,-115.09zm438.39 -225.56c19.28,-32.39 44.92,-57.64 76.93,-75.76 32,-18.12 69.98,-27.19 113.93,-27.19l0 136.49 -33.55 0c-51.67,0 -90.8,13.11 -117.4,39.33 -26.61,26.22 -39.91,71.72 -39.91,136.49l0 335.45 -131.86 0 0 -637.35 131.86 0 0 92.53zm558.7 426.83l180.44 -519.36 139.96 0 -242.91 637.35 -157.31 0 -241.76 -637.35 141.12 0 180.45 519.36zm375.93 -203.57c0,-64.01 13.29,-120.69 39.9,-170.04 26.61,-49.36 62.85,-87.72 108.73,-115.1 45.88,-27.37 96.59,-41.06 152.1,-41.06 50.13,0 93.89,9.84 131.28,29.5 37.4,19.66 67.29,44.15 89.65,73.45l0 -92.53 133.02 0 0 637.35 -133.02 0 0 -94.85c-22.36,30.08 -52.83,55.14 -91.38,75.19 -38.55,20.05 -82.51,30.07 -131.86,30.07 -54.76,0 -104.87,-14.06 -150.38,-42.21 -45.5,-28.15 -81.54,-67.48 -108.15,-117.99 -26.61,-50.51 -39.9,-107.76 -39.9,-171.77zm521.68 2.31c0,-43.95 -9.07,-82.12 -27.19,-114.51 -18.12,-32.4 -41.83,-57.07 -71.13,-74.04 -29.31,-16.96 -60.92,-25.44 -94.86,-25.44 -33.93,0 -65.54,8.29 -94.85,24.87 -29.3,16.57 -53.02,40.86 -71.14,72.87 -18.11,32.01 -27.18,69.98 -27.18,113.94 0,43.95 9.07,82.5 27.18,115.67 18.12,33.16 42.03,58.41 71.72,75.76 29.69,17.35 61.11,26.03 94.27,26.03 33.94,0 65.55,-8.49 94.86,-25.45 29.3,-16.96 53.01,-41.83 71.13,-74.61 18.12,-32.78 27.19,-71.14 27.19,-115.09zm460.37 -210.52l0 352.8c0,23.9 5.59,41.06 16.77,51.47 11.19,10.42 30.27,15.62 57.26,15.62l80.98 0 0 109.88 -104.11 0c-59.38,0 -104.87,-13.88 -136.49,-41.64 -31.62,-27.76 -47.43,-72.87 -47.43,-135.33l0 -352.8 -75.19 0 0 -107.57 75.19 0 0 -158.47 133.02 0 0 158.47 155 0 0 107.57 -155 0zm343.54 -192.02c-23.91,0 -43.96,-8.1 -60.15,-24.29 -16.19,-16.19 -24.29,-36.24 -24.29,-60.15 0,-23.9 8.1,-43.95 24.29,-60.14 16.19,-16.19 36.24,-24.29 60.15,-24.29 23.13,0 42.8,8.1 58.99,24.29 16.19,16.19 24.29,36.24 24.29,60.14 0,23.91 -8.1,43.96 -24.29,60.15 -16.19,16.19 -35.86,24.29 -58.99,24.29zm64.77 84.44l0 637.35 -131.86 0 0 -637.35 131.86 0zm-6703.15 1695.13c0,23.9 -1.54,45.49 -4.63,64.77l-486.97 0c3.85,50.9 22.75,91.77 56.68,122.61 33.94,30.85 75.58,46.27 124.93,46.27 70.95,0 121.07,-29.69 150.38,-89.06l142.27 0c-19.27,58.6 -54.17,106.6 -104.68,144.01 -50.52,37.4 -113.17,56.1 -187.97,56.1 -60.92,0 -115.48,-13.68 -163.68,-41.06 -48.19,-27.37 -85.97,-65.93 -113.35,-115.67 -27.38,-49.74 -41.06,-107.37 -41.06,-172.93 0,-65.55 13.29,-123.19 39.9,-172.93 26.61,-49.74 64,-88.1 112.2,-115.1 48.2,-26.99 103.53,-40.48 165.99,-40.48 60.14,0 113.74,13.11 160.78,39.33 47.04,26.22 83.67,63.04 109.89,110.46 26.22,47.43 39.32,101.99 39.32,163.68zm-137.65 -41.64c-0.77,-48.59 -18.12,-87.53 -52.05,-116.83 -33.94,-29.31 -75.96,-43.96 -126.09,-43.96 -45.49,0 -84.43,14.46 -116.82,43.38 -32.4,28.92 -51.67,68.05 -57.85,117.41l352.8 0zm399.07 269.51l271.83 0 0 106.41 -403.7 0 0 -803.91 131.86 0 0 697.5zm965.85 -227.87c0,23.9 -1.54,45.49 -4.63,64.77l-486.97 0c3.85,50.9 22.75,91.77 56.68,122.61 33.94,30.85 75.58,46.27 124.93,46.27 70.95,0 121.07,-29.69 150.38,-89.06l142.27 0c-19.27,58.6 -54.17,106.6 -104.68,144.01 -50.52,37.4 -113.17,56.1 -187.97,56.1 -60.92,0 -115.48,-13.68 -163.68,-41.06 -48.19,-27.37 -85.97,-65.93 -113.35,-115.67 -27.38,-49.74 -41.06,-107.37 -41.06,-172.93 0,-65.55 13.29,-123.19 39.9,-172.93 26.61,-49.74 64,-88.1 112.2,-115.1 48.2,-26.99 103.53,-40.48 165.99,-40.48 60.14,0 113.74,13.11 160.78,39.33 47.04,26.22 83.67,63.04 109.89,110.46 26.22,47.43 39.32,101.99 39.32,163.68zm-137.65 -41.64c-0.77,-48.59 -18.12,-87.53 -52.05,-116.83 -33.94,-29.31 -75.96,-43.96 -126.09,-43.96 -45.49,0 -84.43,14.46 -116.82,43.38 -32.4,28.92 -51.67,68.05 -57.85,117.41l352.8 0zm223.25 54.37c0,-64.01 13.29,-120.69 39.9,-170.04 26.61,-49.36 62.85,-87.72 108.73,-115.1 45.88,-27.37 96.59,-41.06 152.1,-41.06 50.13,0 93.89,9.84 131.28,29.5 37.4,19.66 67.29,44.15 89.65,73.45l0 -92.53 133.02 0 0 637.35 -133.02 0 0 -94.85c-22.36,30.08 -52.83,55.14 -91.38,75.19 -38.55,20.05 -82.51,30.07 -131.86,30.07 -54.76,0 -104.87,-14.06 -150.38,-42.21 -45.5,-28.15 -81.54,-67.48 -108.15,-117.99 -26.61,-50.51 -39.9,-107.76 -39.9,-171.77zm521.68 2.31c0,-43.95 -9.07,-82.12 -27.19,-114.51 -18.12,-32.4 -41.83,-57.07 -71.13,-74.04 -29.31,-16.96 -60.92,-25.44 -94.86,-25.44 -33.93,0 -65.54,8.29 -94.85,24.87 -29.3,16.57 -53.02,40.86 -71.14,72.87 -18.11,32.01 -27.18,69.98 -27.18,113.94 0,43.95 9.07,82.5 27.18,115.67 18.12,33.16 42.03,58.41 71.72,75.76 29.69,17.35 61.11,26.03 94.27,26.03 33.94,0 65.55,-8.49 94.86,-25.45 29.3,-16.96 53.01,-41.83 71.13,-74.61 18.12,-32.78 27.19,-71.14 27.19,-115.09zm438.39 -225.56c19.28,-32.39 44.92,-57.64 76.93,-75.76 32,-18.12 69.98,-27.19 113.93,-27.19l0 136.49 -33.55 0c-51.67,0 -90.8,13.11 -117.4,39.33 -26.61,26.22 -39.91,71.72 -39.91,136.49l0 335.45 -131.86 0 0 -637.35 131.86 0 0 92.53zm633.89 -102.95c50.12,0 95.04,10.42 134.75,31.24 39.71,20.82 70.75,51.67 93.12,92.53 22.36,40.87 33.54,90.23 33.54,148.07l0 375.93 -130.7 0 0 -356.27c0,-57.07 -14.26,-100.83 -42.8,-131.28 -28.53,-30.47 -67.47,-45.69 -116.83,-45.69 -49.35,0 -88.48,15.22 -117.4,45.69 -28.92,30.46 -43.38,74.22 -43.38,131.28l0 356.27 -131.86 0 0 -637.35 131.86 0 0 72.87c21.59,-26.22 49.16,-46.65 82.7,-61.3 33.55,-14.65 69.21,-21.98 107,-21.98zm496.23 -74.03c-23.91,0 -43.96,-8.1 -60.15,-24.29 -16.19,-16.19 -24.29,-36.24 -24.29,-60.15 0,-23.9 8.1,-43.95 24.29,-60.14 16.19,-16.19 36.24,-24.29 60.15,-24.29 23.13,0 42.8,8.1 58.99,24.29 16.19,16.19 24.29,36.24 24.29,60.14 0,23.91 -8.1,43.96 -24.29,60.15 -16.19,16.19 -35.86,24.29 -58.99,24.29zm64.77 84.44l0 637.35 -131.86 0 0 -637.35 131.86 0zm495.08 -10.42c50.12,0 95.04,10.42 134.75,31.24 39.71,20.82 70.75,51.67 93.12,92.53 22.36,40.87 33.54,90.23 33.54,148.07l0 375.93 -130.7 0 0 -356.27c0,-57.07 -14.26,-100.83 -42.8,-131.28 -28.53,-30.47 -67.47,-45.69 -116.83,-45.69 -49.35,0 -88.48,15.22 -117.4,45.69 -28.92,30.46 -43.38,74.22 -43.38,131.28l0 356.27 -131.86 0 0 -637.35 131.86 0 0 72.87c21.59,-26.22 49.16,-46.65 82.7,-61.3 33.55,-14.65 69.21,-21.98 107,-21.98zm685.93 0c49.36,0 93.12,9.84 131.28,29.5 38.17,19.66 68.06,44.15 89.65,73.45l0 -92.53 133.02 0 0 647.75c0,58.61 -12.34,110.85 -37.01,156.74 -24.68,45.88 -60.34,81.93 -107,108.15 -46.65,26.22 -102.37,39.32 -167.14,39.32 -86.37,0 -158.08,-20.24 -215.15,-60.72 -57.07,-40.48 -89.45,-95.43 -97.17,-164.83l130.71 0c10.03,33.16 31.42,59.95 64.19,80.39 32.78,20.44 71.91,30.66 117.41,30.66 53.21,0 96.2,-16.19 128.97,-48.59 32.77,-32.39 49.16,-79.43 49.16,-141.12l0 -106.41c-22.36,30.08 -52.63,55.33 -90.8,75.77 -38.17,20.43 -81.55,30.65 -130.13,30.65 -55.52,0 -106.22,-14.06 -152.1,-42.21 -45.88,-28.15 -82.12,-67.48 -108.73,-117.99 -26.61,-50.51 -39.9,-107.76 -39.9,-171.77 0,-64.01 13.29,-120.69 39.9,-170.04 26.61,-49.36 62.85,-87.72 108.73,-115.1 45.88,-27.37 96.59,-41.06 152.1,-41.06zm220.94 328.51c0,-43.95 -9.07,-82.12 -27.19,-114.51 -18.12,-32.4 -41.83,-57.07 -71.13,-74.04 -29.31,-16.96 -60.92,-25.44 -94.86,-25.44 -33.93,0 -65.54,8.29 -94.85,24.87 -29.3,16.57 -53.02,40.86 -71.14,72.87 -18.11,32.01 -27.18,69.98 -27.18,113.94 0,43.95 9.07,82.5 27.18,115.67 18.12,33.16 42.03,58.41 71.72,75.76 29.69,17.35 61.11,26.03 94.27,26.03 33.94,0 65.55,-8.49 94.86,-25.45 29.3,-16.96 53.01,-41.83 71.13,-74.61 18.12,-32.78 27.19,-71.14 27.19,-115.09zm1815.84 -484.66l0 803.91 -131.86 0 0 -803.91 131.86 0zm495.08 156.15c50.12,0 95.04,10.42 134.75,31.24 39.71,20.82 70.75,51.67 93.12,92.53 22.36,40.87 33.54,90.23 33.54,148.07l0 375.93 -130.7 0 0 -356.27c0,-57.07 -14.26,-100.83 -42.8,-131.28 -28.53,-30.47 -67.47,-45.69 -116.83,-45.69 -49.35,0 -88.48,15.22 -117.4,45.69 -28.92,30.46 -43.38,74.22 -43.38,131.28l0 356.27 -131.86 0 0 -637.35 131.86 0 0 72.87c21.59,-26.22 49.16,-46.65 82.7,-61.3 33.55,-14.65 69.21,-21.98 107,-21.98zm675.52 529.77l180.44 -519.36 139.96 0 -242.91 637.35 -157.31 0 -241.76 -637.35 141.12 0 180.45 519.36zm1004.02 -216.3c0,23.9 -1.54,45.49 -4.63,64.77l-486.97 0c3.85,50.9 22.75,91.77 56.68,122.61 33.94,30.85 75.58,46.27 124.93,46.27 70.95,0 121.07,-29.69 150.38,-89.06l142.27 0c-19.27,58.6 -54.17,106.6 -104.68,144.01 -50.52,37.4 -113.17,56.1 -187.97,56.1 -60.92,0 -115.48,-13.68 -163.68,-41.06 -48.19,-27.37 -85.97,-65.93 -113.35,-115.67 -27.38,-49.74 -41.06,-107.37 -41.06,-172.93 0,-65.55 13.29,-123.19 39.9,-172.93 26.61,-49.74 64,-88.1 112.2,-115.1 48.2,-26.99 103.53,-40.48 165.99,-40.48 60.14,0 113.74,13.11 160.78,39.33 47.04,26.22 83.67,63.04 109.89,110.46 26.22,47.43 39.32,101.99 39.32,163.68zm-137.65 -41.64c-0.77,-48.59 -18.12,-87.53 -52.05,-116.83 -33.94,-29.31 -75.96,-43.96 -126.09,-43.96 -45.49,0 -84.43,14.46 -116.82,43.38 -32.4,28.92 -51.67,68.05 -57.85,117.41l352.8 0zm498.55 386.33c-50.12,0 -95.04,-9.06 -134.75,-27.18 -39.71,-18.12 -71.14,-42.8 -94.27,-74.03 -23.14,-31.24 -35.47,-66.12 -37.02,-104.69l136.5 0c2.31,26.99 15.22,49.55 38.74,67.67 23.52,18.12 53.02,27.18 88.49,27.18 37.01,0 65.74,-7.13 86.17,-21.4 20.43,-14.26 30.66,-32.58 30.66,-54.94 0,-23.91 -11.38,-41.64 -34.13,-53.21 -22.75,-11.58 -58.8,-24.3 -108.15,-38.17 -47.81,-13.11 -86.75,-25.84 -116.83,-38.17 -30.08,-12.33 -56.1,-31.24 -78.08,-56.68 -21.98,-25.45 -32.97,-58.99 -32.97,-100.64 0,-33.94 10.03,-64.97 30.08,-93.12 20.05,-28.15 48.77,-50.32 86.17,-66.51 37.4,-16.19 80.4,-24.29 128.97,-24.29 72.49,0 130.9,18.31 175.24,54.95 44.33,36.62 68.05,86.56 71.13,149.8l-131.86 0c-2.31,-28.54 -13.87,-51.28 -34.7,-68.25 -20.82,-16.96 -48.97,-25.45 -84.44,-25.45 -34.71,0 -61.3,6.56 -79.82,19.67 -18.5,13.1 -27.76,30.46 -27.76,52.05 0,16.96 6.17,31.24 18.5,42.8 12.34,11.57 27.38,20.63 45.12,27.18 17.73,6.56 43.95,14.84 78.66,24.87 46.26,12.34 84.24,24.87 113.93,37.59 29.69,12.72 55.33,31.43 76.92,56.11 21.6,24.67 32.78,57.45 33.55,98.32 0,36.24 -10.03,68.63 -30.07,97.17 -20.05,28.53 -48.39,50.89 -85.02,67.08 -36.62,16.19 -79.62,24.29 -128.97,24.29zm540.19 -540.18l0 352.8c0,23.9 5.59,41.06 16.77,51.47 11.19,10.42 30.27,15.62 57.26,15.62l80.98 0 0 109.88 -104.11 0c-59.38,0 -104.87,-13.88 -136.49,-41.64 -31.62,-27.76 -47.43,-72.87 -47.43,-135.33l0 -352.8 -75.19 0 0 -107.57 75.19 0 0 -158.47 133.02 0 0 158.47 155 0 0 107.57 -155 0zm1047.98 -117.99c50.13,0 95.04,10.42 134.75,31.24 39.72,20.82 70.95,51.67 93.7,92.53 22.75,40.87 34.13,90.23 34.13,148.07l0 375.93 -130.71 0 0 -356.27c0,-57.07 -14.26,-100.83 -42.8,-131.28 -28.53,-30.47 -67.47,-45.69 -116.82,-45.69 -49.36,0 -88.49,15.22 -117.41,45.69 -28.92,30.46 -43.38,74.22 -43.38,131.28l0 356.27 -130.7 0 0 -356.27c0,-57.07 -14.26,-100.83 -42.8,-131.28 -28.53,-30.47 -67.47,-45.69 -116.83,-45.69 -49.35,0 -88.48,15.22 -117.4,45.69 -28.92,30.46 -43.38,74.22 -43.38,131.28l0 356.27 -131.86 0 0 -637.35 131.86 0 0 72.87c21.59,-26.22 48.97,-46.65 82.12,-61.3 33.17,-14.65 68.64,-21.98 106.42,-21.98 50.9,0 96.39,10.8 136.49,32.39 40.1,21.6 70.94,52.83 92.54,93.7 19.27,-38.56 49.35,-69.21 90.22,-91.96 40.87,-22.75 84.82,-34.13 131.86,-34.13zm1014.43 313.48c0,23.9 -1.54,45.49 -4.63,64.77l-486.97 0c3.85,50.9 22.75,91.77 56.68,122.61 33.94,30.85 75.58,46.27 124.93,46.27 70.95,0 121.07,-29.69 150.38,-89.06l142.27 0c-19.27,58.6 -54.17,106.6 -104.68,144.01 -50.52,37.4 -113.17,56.1 -187.97,56.1 -60.92,0 -115.48,-13.68 -163.68,-41.06 -48.19,-27.37 -85.97,-65.93 -113.35,-115.67 -27.38,-49.74 -41.06,-107.37 -41.06,-172.93 0,-65.55 13.29,-123.19 39.9,-172.93 26.61,-49.74 64,-88.1 112.2,-115.1 48.2,-26.99 103.53,-40.48 165.99,-40.48 60.14,0 113.74,13.11 160.78,39.33 47.04,26.22 83.67,63.04 109.89,110.46 26.22,47.43 39.32,101.99 39.32,163.68zm-137.65 -41.64c-0.77,-48.59 -18.12,-87.53 -52.05,-116.83 -33.94,-29.31 -75.96,-43.96 -126.09,-43.96 -45.49,0 -84.43,14.46 -116.82,43.38 -32.4,28.92 -51.67,68.05 -57.85,117.41l352.8 0zm588.78 -271.83c50.12,0 95.04,10.42 134.75,31.24 39.71,20.82 70.75,51.67 93.12,92.53 22.36,40.87 33.54,90.23 33.54,148.07l0 375.93 -130.7 0 0 -356.27c0,-57.07 -14.26,-100.83 -42.8,-131.28 -28.53,-30.47 -67.47,-45.69 -116.83,-45.69 -49.35,0 -88.48,15.22 -117.4,45.69 -28.92,30.46 -43.38,74.22 -43.38,131.28l0 356.27 -131.86 0 0 -637.35 131.86 0 0 72.87c21.59,-26.22 49.16,-46.65 82.7,-61.3 33.55,-14.65 69.21,-21.98 107,-21.98zm582.98 117.99l0 352.8c0,23.9 5.59,41.06 16.77,51.47 11.19,10.42 30.27,15.62 57.26,15.62l80.98 0 0 109.88 -104.11 0c-59.38,0 -104.87,-13.88 -136.49,-41.64 -31.62,-27.76 -47.43,-72.87 -47.43,-135.33l0 -352.8 -75.19 0 0 -107.57 75.19 0 0 -158.47 133.02 0 0 158.47 155 0 0 107.57 -155 0zm-7145.01 2.31l30.46 -17.54c21.01,-12.53 36.82,-26.8 47.43,-43.18 10.61,-16.39 15.8,-34.9 15.8,-55.14 0,-23.33 -7.13,-42.41 -21.4,-57.26 -14.26,-14.84 -32.97,-22.37 -55.91,-22.37 -25.25,0 -45.49,7.53 -61.11,22.56 -15.42,15.03 -23.13,34.51 -23.13,58.22 0,11.75 2.12,22.94 6.56,33.93 4.43,10.99 10.99,21.21 20.04,31.04l41.26 49.74zm148.45 360.89l-180.64 -208.4 -21.01 14.07c-39.52,25.64 -67.09,48.97 -82.7,70.37 -15.62,21.2 -23.33,44.72 -23.33,70.75 0,36.63 12.72,67.47 38.36,92.73 25.64,25.26 57.46,37.78 95.43,37.78 28.34,0 56.88,-6.36 85.59,-19.27 28.73,-12.72 58.22,-32.01 88.3,-58.04zm143.05 166.57l-66.71 -78.47c-39.13,33.55 -79.43,58.22 -120.68,74.23 -41.06,15.99 -86.17,24.1 -135.14,24.1 -76.16,0 -138.04,-21.98 -185.66,-66.13 -47.61,-44.15 -71.33,-100.83 -71.33,-170.04 0,-47.04 14.65,-90.41 43.96,-130.12 29.5,-39.72 76.15,-79.63 140.15,-119.53l-33.35 -36.05c-18.51,-20.05 -32.59,-41.83 -42.41,-65.54 -9.84,-23.72 -14.65,-47.82 -14.65,-72.3 0,-54.18 19.85,-98.71 59.56,-133.6 39.71,-34.9 90.8,-52.25 153.46,-52.25 62.07,0 111.42,15.62 147.87,47.04 36.43,31.43 54.75,74.04 54.75,127.44 0,40.29 -12.72,77.12 -38.36,110.46 -25.64,33.36 -66.51,66.32 -122.61,99.1l172.35 199.91c16.58,-16.57 33.55,-35.46 50.9,-56.49 17.15,-21.01 35.66,-45.3 55.33,-72.87l79.05 84.24c-15.04,24.1 -31.82,46.85 -50.32,68.63 -18.31,21.59 -38.36,41.84 -59.76,60.73l138.8 157.5 -155.18 0zm-5741.73 588.16l0 803.91 -131.86 0 0 -550.59 -245.22 550.59 -91.38 0 -246.38 -550.59 0 550.59 -131.86 0 0 -803.91 142.28 0 282.24 630.41 281.08 -630.41 141.12 0zm129.55 482.35c0,-64.01 13.29,-120.69 39.9,-170.04 26.61,-49.36 62.85,-87.72 108.73,-115.1 45.88,-27.37 96.59,-41.06 152.1,-41.06 50.13,0 93.89,9.84 131.28,29.5 37.4,19.66 67.29,44.15 89.65,73.45l0 -92.53 133.02 0 0 637.35 -133.02 0 0 -94.85c-22.36,30.08 -52.83,55.14 -91.38,75.19 -38.55,20.05 -82.51,30.07 -131.86,30.07 -54.76,0 -104.87,-14.06 -150.38,-42.21 -45.5,-28.15 -81.54,-67.48 -108.15,-117.99 -26.61,-50.51 -39.9,-107.76 -39.9,-171.77zm521.68 2.31c0,-43.95 -9.07,-82.12 -27.19,-114.51 -18.12,-32.4 -41.83,-57.07 -71.13,-74.04 -29.31,-16.96 -60.92,-25.44 -94.86,-25.44 -33.93,0 -65.54,8.29 -94.85,24.87 -29.3,16.57 -53.02,40.86 -71.14,72.87 -18.11,32.01 -27.18,69.98 -27.18,113.94 0,43.95 9.07,82.5 27.18,115.67 18.12,33.16 42.03,58.41 71.72,75.76 29.69,17.35 61.11,26.03 94.27,26.03 33.94,0 65.55,-8.49 94.86,-25.45 29.3,-16.96 53.01,-41.83 71.13,-74.61 18.12,-32.78 27.19,-71.14 27.19,-115.09zm628.1 -328.51c50.12,0 95.04,10.42 134.75,31.24 39.71,20.82 70.75,51.67 93.12,92.53 22.36,40.87 33.54,90.23 33.54,148.07l0 375.93 -130.7 0 0 -356.27c0,-57.07 -14.26,-100.83 -42.8,-131.28 -28.53,-30.47 -67.47,-45.69 -116.83,-45.69 -49.35,0 -88.48,15.22 -117.4,45.69 -28.92,30.46 -43.38,74.22 -43.38,131.28l0 356.27 -131.86 0 0 -637.35 131.86 0 0 72.87c21.59,-26.22 49.16,-46.65 82.7,-61.3 33.55,-14.65 69.21,-21.98 107,-21.98zm385.18 326.2c0,-64.01 13.29,-120.69 39.9,-170.04 26.61,-49.36 62.85,-87.72 108.73,-115.1 45.88,-27.37 96.59,-41.06 152.1,-41.06 50.13,0 93.89,9.84 131.28,29.5 37.4,19.66 67.29,44.15 89.65,73.45l0 -92.53 133.02 0 0 637.35 -133.02 0 0 -94.85c-22.36,30.08 -52.83,55.14 -91.38,75.19 -38.55,20.05 -82.51,30.07 -131.86,30.07 -54.76,0 -104.87,-14.06 -150.38,-42.21 -45.5,-28.15 -81.54,-67.48 -108.15,-117.99 -26.61,-50.51 -39.9,-107.76 -39.9,-171.77zm521.68 2.31c0,-43.95 -9.07,-82.12 -27.19,-114.51 -18.12,-32.4 -41.83,-57.07 -71.13,-74.04 -29.31,-16.96 -60.92,-25.44 -94.86,-25.44 -33.93,0 -65.54,8.29 -94.85,24.87 -29.3,16.57 -53.02,40.86 -71.14,72.87 -18.11,32.01 -27.18,69.98 -27.18,113.94 0,43.95 9.07,82.5 27.18,115.67 18.12,33.16 42.03,58.41 71.72,75.76 29.69,17.35 61.11,26.03 94.27,26.03 33.94,0 65.55,-8.49 94.86,-25.45 29.3,-16.96 53.01,-41.83 71.13,-74.61 18.12,-32.78 27.19,-71.14 27.19,-115.09zm563.32 -328.51c49.36,0 93.12,9.84 131.28,29.5 38.17,19.66 68.06,44.15 89.65,73.45l0 -92.53 133.02 0 0 647.75c0,58.61 -12.34,110.85 -37.01,156.74 -24.68,45.88 -60.34,81.93 -107,108.15 -46.65,26.22 -102.37,39.32 -167.14,39.32 -86.37,0 -158.08,-20.24 -215.15,-60.72 -57.07,-40.48 -89.45,-95.43 -97.17,-164.83l130.71 0c10.03,33.16 31.42,59.95 64.19,80.39 32.78,20.44 71.91,30.66 117.41,30.66 53.21,0 96.2,-16.19 128.97,-48.59 32.77,-32.39 49.16,-79.43 49.16,-141.12l0 -106.41c-22.36,30.08 -52.63,55.33 -90.8,75.77 -38.17,20.43 -81.55,30.65 -130.13,30.65 -55.52,0 -106.22,-14.06 -152.1,-42.21 -45.88,-28.15 -82.12,-67.48 -108.73,-117.99 -26.61,-50.51 -39.9,-107.76 -39.9,-171.77 0,-64.01 13.29,-120.69 39.9,-170.04 26.61,-49.36 62.85,-87.72 108.73,-115.1 45.88,-27.37 96.59,-41.06 152.1,-41.06zm220.94 328.51c0,-43.95 -9.07,-82.12 -27.19,-114.51 -18.12,-32.4 -41.83,-57.07 -71.13,-74.04 -29.31,-16.96 -60.92,-25.44 -94.86,-25.44 -33.93,0 -65.54,8.29 -94.85,24.87 -29.3,16.57 -53.02,40.86 -71.14,72.87 -18.11,32.01 -27.18,69.98 -27.18,113.94 0,43.95 9.07,82.5 27.18,115.67 18.12,33.16 42.03,58.41 71.72,75.76 29.69,17.35 61.11,26.03 94.27,26.03 33.94,0 65.55,-8.49 94.86,-25.45 29.3,-16.96 53.01,-41.83 71.13,-74.61 18.12,-32.78 27.19,-71.14 27.19,-115.09zm890.67 -15.03c0,23.9 -1.54,45.49 -4.63,64.77l-486.97 0c3.85,50.9 22.75,91.77 56.68,122.61 33.94,30.85 75.58,46.27 124.93,46.27 70.95,0 121.07,-29.69 150.38,-89.06l142.27 0c-19.27,58.6 -54.17,106.6 -104.68,144.01 -50.52,37.4 -113.17,56.1 -187.97,56.1 -60.92,0 -115.48,-13.68 -163.68,-41.06 -48.19,-27.37 -85.97,-65.93 -113.35,-115.67 -27.38,-49.74 -41.06,-107.37 -41.06,-172.93 0,-65.55 13.29,-123.19 39.9,-172.93 26.61,-49.74 64,-88.1 112.2,-115.1 48.2,-26.99 103.53,-40.48 165.99,-40.48 60.14,0 113.74,13.11 160.78,39.33 47.04,26.22 83.67,63.04 109.89,110.46 26.22,47.43 39.32,101.99 39.32,163.68zm-137.65 -41.64c-0.77,-48.59 -18.12,-87.53 -52.05,-116.83 -33.94,-29.31 -75.96,-43.96 -126.09,-43.96 -45.49,0 -84.43,14.46 -116.82,43.38 -32.4,28.92 -51.67,68.05 -57.85,117.41l352.8 0zm1038.73 -271.83c50.13,0 95.04,10.42 134.75,31.24 39.72,20.82 70.95,51.67 93.7,92.53 22.75,40.87 34.13,90.23 34.13,148.07l0 375.93 -130.71 0 0 -356.27c0,-57.07 -14.26,-100.83 -42.8,-131.28 -28.53,-30.47 -67.47,-45.69 -116.82,-45.69 -49.36,0 -88.49,15.22 -117.41,45.69 -28.92,30.46 -43.38,74.22 -43.38,131.28l0 356.27 -130.7 0 0 -356.27c0,-57.07 -14.26,-100.83 -42.8,-131.28 -28.53,-30.47 -67.47,-45.69 -116.83,-45.69 -49.35,0 -88.48,15.22 -117.4,45.69 -28.92,30.46 -43.38,74.22 -43.38,131.28l0 356.27 -131.86 0 0 -637.35 131.86 0 0 72.87c21.59,-26.22 48.97,-46.65 82.12,-61.3 33.17,-14.65 68.64,-21.98 106.42,-21.98 50.9,0 96.39,10.8 136.49,32.39 40.1,21.6 70.94,52.83 92.54,93.7 19.27,-38.56 49.35,-69.21 90.22,-91.96 40.87,-22.75 84.82,-34.13 131.86,-34.13z"/>
   <path class="fil3" d="M12306.4 3685.29c0,23.9 -1.54,45.49 -4.63,64.77l-486.97 0c3.85,50.9 22.75,91.77 56.68,122.61 33.94,30.85 75.58,46.27 124.93,46.27 70.95,0 121.07,-29.69 150.38,-89.06l142.27 0c-19.27,58.6 -54.17,106.6 -104.68,144.01 -50.52,37.4 -113.17,56.1 -187.97,56.1 -60.92,0 -115.48,-13.68 -163.68,-41.06 -48.19,-27.37 -85.97,-65.93 -113.35,-115.67 -27.38,-49.74 -41.06,-107.37 -41.06,-172.93 0,-65.55 13.29,-123.19 39.9,-172.93 26.61,-49.74 64,-88.1 112.2,-115.1 48.2,-26.99 103.53,-40.48 165.99,-40.48 60.14,0 113.74,13.11 160.78,39.33 47.04,26.22 83.67,63.04 109.89,110.46 26.22,47.43 39.32,101.99 39.32,163.68zm-137.65 -41.64c-0.77,-48.59 -18.12,-87.53 -52.05,-116.83 -33.94,-29.31 -75.96,-43.96 -126.09,-43.96 -45.49,0 -84.43,14.46 -116.82,43.38 -32.4,28.92 -51.67,68.05 -57.85,117.41l352.8 0zm588.78 -271.83c50.12,0 95.04,10.42 134.75,31.24 39.71,20.82 70.75,51.67 93.12,92.53 22.36,40.87 33.54,90.23 33.54,148.07l0 375.93 -130.7 0 0 -356.27c0,-57.07 -14.26,-100.83 -42.8,-131.28 -28.53,-30.47 -67.47,-45.69 -116.83,-45.69 -49.35,0 -88.48,15.22 -117.4,45.69 -28.92,30.46 -43.38,74.22 -43.38,131.28l0 356.27 -131.86 0 0 -637.35 131.86 0 0 72.87c21.59,-26.22 49.16,-46.65 82.7,-61.3 33.55,-14.65 69.21,-21.98 107,-21.98zm582.98 117.99l0 352.8c0,23.9 5.59,41.06 16.77,51.47 11.19,10.42 30.27,15.62 57.26,15.62l80.98 0 0 109.88 -104.11 0c-59.38,0 -104.87,-13.88 -136.49,-41.64 -31.62,-27.76 -47.43,-72.87 -47.43,-135.33l0 -352.8 -75.19 0 0 -107.57 75.19 0 0 -158.47 133.02 0 0 158.47 155 0 0 107.57 -155 0zm533.24 126.08c0,-78.66 18.31,-149.22 54.94,-211.68 36.63,-62.46 86.37,-111.23 149.22,-146.32 62.85,-35.08 131.67,-52.64 206.48,-52.64 85.59,0 161.74,21.02 228.45,63.04 66.7,42.03 115.09,101.6 145.17,178.71l-158.47 0c-20.82,-42.41 -49.74,-74.03 -86.75,-94.85 -37.01,-20.82 -79.82,-31.23 -128.39,-31.23 -53.22,0 -100.64,11.94 -142.28,35.85 -41.64,23.9 -74.22,58.21 -97.74,102.95 -23.52,44.73 -35.28,96.78 -35.28,156.15 0,59.38 11.76,111.43 35.28,156.16 23.52,44.72 56.1,79.24 97.74,103.53 41.64,24.29 89.06,36.43 142.28,36.43 48.58,0 91.38,-10.42 128.39,-31.24 37.01,-20.81 65.93,-52.44 86.75,-94.85l158.47 0c-30.08,77.12 -78.47,136.49 -145.17,178.13 -66.71,41.64 -142.86,62.46 -228.45,62.46 -75.58,0 -144.59,-17.54 -207.05,-52.63 -62.46,-35.08 -112.01,-83.86 -148.65,-146.33 -36.62,-62.46 -54.94,-133.02 -54.94,-211.68zm1214.54 414.1c-60.14,0 -114.51,-13.68 -163.09,-41.06 -48.59,-27.37 -86.75,-65.93 -114.52,-115.67 -27.76,-49.74 -41.64,-107.37 -41.64,-172.93 0,-64.77 14.27,-122.23 42.8,-172.35 28.54,-50.13 67.47,-88.68 116.83,-115.68 49.35,-26.99 104.49,-40.48 165.41,-40.48 60.92,0 116.06,13.49 165.41,40.48 49.36,27 88.29,65.55 116.83,115.68 28.53,50.12 42.8,107.57 42.8,172.35 0,64.77 -14.65,122.23 -43.96,172.35 -29.3,50.13 -69.21,88.88 -119.72,116.25 -50.51,27.38 -106.22,41.06 -167.15,41.06zm0 -114.51c33.94,0 65.74,-8.1 95.43,-24.29 29.7,-16.19 53.79,-40.48 72.3,-72.87 18.5,-32.4 27.76,-71.72 27.76,-117.99 0,-46.27 -8.87,-85.4 -26.6,-117.41 -17.74,-32 -41.26,-56.1 -70.56,-72.29 -29.31,-16.19 -60.92,-24.29 -94.85,-24.29 -33.94,0 -65.36,8.1 -94.28,24.29 -28.92,16.19 -51.86,40.29 -68.82,72.29 -16.96,32.01 -25.45,71.14 -25.45,117.41 0,68.63 17.54,121.65 52.63,159.05 35.09,37.39 79.24,56.1 132.44,56.1zm514.74 112.2c-23.9,0 -43.95,-8.1 -60.14,-24.29 -16.19,-16.19 -24.29,-36.24 -24.29,-60.15 0,-23.9 8.1,-43.95 24.29,-60.14 16.19,-16.19 36.24,-24.29 60.14,-24.29 23.14,0 42.8,8.1 58.99,24.29 16.19,16.19 24.29,36.24 24.29,60.14 0,23.91 -8.1,43.96 -24.29,60.15 -16.19,16.19 -35.85,24.29 -58.99,24.29z"/>
  </g>
  <path class="fil4" d="M2333.69 201.48c-1175.74,0 -2132.25,956.45 -2132.25,2132.25 0,1175.68 956.51,2132.2 2132.25,2132.2 1175.68,0 2132.24,-956.52 2132.24,-2132.2 0,-1175.8 -956.56,-2132.25 -2132.24,-2132.25zm0 4465.9c-1286.81,0 -2333.69,-1046.87 -2333.69,-2333.65 0,-1286.78 1046.88,-2333.74 2333.69,-2333.74 1286.8,0 2333.64,1046.96 2333.64,2333.74 0,1286.78 -1046.84,2333.65 -2333.64,2333.65z"/>
 </g>
</svg>
