<svg version="1.2" baseProfile="tiny-ps" xmlns="http://www.w3.org/2000/svg" viewBox="0 0 4768 4752" width="476" height="474">
	<title>ArjunParvatilogo-svg</title>
	<defs>
		<linearGradient id="grd1" gradientUnits="userSpaceOnUse"  x1="2381.72" y1="-2831.9" x2="2381.72" y2="6204.17">
			<stop offset="0" stop-color="#93278f"  />
			<stop offset="1" stop-color="#00a99d"  />
		</linearGradient>
		<linearGradient id="grd2" gradientUnits="userSpaceOnUse"  x1="2381.7" y1="-2933.13" x2="2381.7" y2="6550.73">
			<stop offset="0" stop-color="#93278f"  />
			<stop offset="1" stop-color="#00a99d"  />
		</linearGradient>
	</defs>
	<style>
		tspan { white-space:pre }
		.shp0 { fill: url(#grd1) } 
		.shp1 { fill: #645194 } 
		.shp2 { fill: #ffffff } 
		.shp3 { fill: url(#grd2) } 
	</style>
	<g id="Layer_x0020_1">
		<g id="_105553336131232">
			<path id="Layer" fill-rule="evenodd" class="shp0" d="M2444.16 2398.99C2498.63 2408.77 2548.75 2431.07 2591.42 2462.82L2741.07 2306.6L2741.07 2054.12C2647.01 2026.81 2580.16 1938.99 2580.15 1840.06C2580.15 1705.56 2699.8 1598.53 2838.22 1619.63C2917.25 1631.64 2985.31 1687.74 3012.6 1762.8C3058.83 1890.1 2983.57 2019.77 2865.42 2054.11L2865.42 2176.67L3385.53 1633.53C3364.35 1598.77 3353.2 1559.21 3353.2 1518.16C3353.2 1393.95 3455.2 1293.15 3579.83 1295.11C3704.72 1297.07 3808.92 1412.28 3798.59 1536.72C3789.08 1651.19 3692.99 1741.37 3576.19 1741.37C3541.85 1741.37 3507.82 1733.28 3477.04 1717.91L2948.98 2269.21L3319.96 2269.21L3518.06 2095.06C3504.43 2065.87 3497.23 2033.67 3497.23 2000.88C3497.23 1862.21 3624.51 1752.65 3768.44 1782.9C3852.6 1800.63 3920.67 1868.66 3938.31 1952.89C3968.51 2096.79 3859 2224 3720.31 2224C3677.43 2224 3636.25 2211.82 3600.26 2188.68L3422.55 2344.56L3517.61 2510.47C3580.78 2477.05 3657.55 2474.86 3726.21 2510.18C3784.99 2540.43 3827.62 2597.65 3840.46 2662.52C3872.15 2822.81 3730.47 2961.51 3569.39 2924.66C3522.27 2913.86 3479.33 2886.84 3449.2 2849.03C3388.37 2772.75 3384.63 2676.61 3426.11 2600.9L3307.31 2393.63L2829.89 2393.62L2676.67 2553.55C2712.56 2608.7 2733.45 2674.5 2733.45 2745.21C2733.45 2827.83 2704.93 2903.82 2657.22 2963.86L2657.22 3736.26L2532.87 3736.26L2532.87 3062.9C2505.11 3076.13 2475.36 3085.84 2444.18 3091.44L2444.18 3736.28L2319.13 3736.5L2319.13 3091.43C2287.99 3085.84 2258.29 3076.14 2230.57 3062.94L2230.57 3736.99L2106.13 3735.87L2106.13 2963.85C2058.43 2903.82 2029.92 2827.84 2029.92 2745.21C2029.92 2674.52 2050.78 2608.7 2086.69 2553.56L1933.46 2393.63L1456.13 2393.63L1337.31 2600.9C1379 2677.23 1374.87 2774.03 1313.04 2850.26C1282.47 2887.94 1239.18 2914.78 1191.78 2925.16C1031.18 2960.33 890.59 2821.22 923.27 2661.07C936.45 2596.41 979.32 2539.57 1038.16 2509.69C1106.66 2474.88 1182.9 2477.2 1245.78 2510.47L1340.78 2344.56L1163.15 2188.68C1127.08 2211.81 1085.85 2224 1043.07 2224C904.35 2224 794.81 2096.7 825.04 1952.8C842.73 1868.67 910.8 1800.56 995 1782.9C1138.93 1752.72 1266.19 1862.21 1266.19 2000.88C1266.19 2033.5 1259 2065.79 1245.29 2095.06L1443.48 2269.21L1814.42 2269.21L1286.33 1717.91C1195.83 1763.04 1077.91 1745.22 1004.81 1644.9C986.57 1619.96 973.52 1590.93 967.88 1560.53C940.1 1410.56 1063.64 1280.41 1211.98 1296.43C1307.69 1306.82 1388.38 1380.56 1406.18 1475.16C1416.72 1531.16 1406.42 1586.76 1377.89 1633.53L1898 2176.67L1898 2054.11C1803.89 2026.8 1737.03 1938.98 1737.03 1840.05C1737.03 1705.55 1856.67 1598.44 1995.15 1619.62C2074.12 1631.71 2142.19 1687.73 2169.48 1762.78C2215.76 1890.01 2140.5 2019.76 2022.33 2054.1L2022.33 2306.58L2171.99 2462.78C2214.64 2431.04 2264.72 2408.75 2319.16 2398.99L2319.16 1785.26L1887.97 1264.6C1859.38 1274.83 1829.05 1278.99 1797.76 1276.86C1697.85 1270.08 1612 1194.05 1594.26 1095.51C1565.72 936.98 1705.91 800.93 1865.38 837.07C1928.55 851.37 1983.47 894.3 2012.37 952.36C2053.24 1034.35 2040.94 1125.61 1988.98 1191.68L2319.17 1590.34L2319.17 914.75C2200.73 880.16 2125.4 749.58 2172.69 621.96C2200.48 546.9 2269.09 491.22 2348.3 479.86C2486.58 459.99 2605.13 566.69 2605.13 700.54C2605.13 799.47 2538.21 887.36 2444.21 914.76L2444.21 1590.35L2774.5 1191.67C2722.47 1125.54 2710.23 1034.21 2751.21 952.12C2780.15 894.14 2835.13 851.29 2898.3 837C3057.66 801.1 3197.8 937.07 3169.22 1095.62C3151.43 1194.14 3065.56 1270.1 2965.71 1276.87C2934.47 1279 2904.14 1274.83 2875.51 1264.61L2444.22 1785.27L2444.22 2398.98L2444.16 2398.99ZM1141.81 2000.89C1141.81 1946.51 1097.5 1902.19 1043.04 1902.21C988.6 1902.19 944.34 1946.51 944.34 2000.89C944.35 2055.43 988.62 2099.74 1043.04 2099.74C1097.5 2099.74 1141.81 2055.43 1141.81 2000.89ZM2488.28 4105.63L2414.41 4242.09C2408.55 4252.89 2399.57 4283.58 2376.33 4276.96C2362.81 4273.11 2351.29 4242.02 2346.29 4232.35C2331.32 4203.48 2278.95 4114.57 2275.04 4097.47C2299.03 4087.59 2353.27 4086.92 2380.75 4087.53C2410.62 4088.17 2455.69 4092.23 2488.27 4105.63L2488.28 4105.63ZM2239.38 4034.17L2105.38 3782.12L2238.29 3782.18L2238.29 3782.28L2514.71 3782.28L2657.94 3782.34L2519.69 4040.78C2463.86 4026.93 2428.98 4022.13 2379.59 4019.71C2350.86 4018.3 2277.31 4023.22 2239.38 4034.17ZM1240.33 2707.7C1240.33 2653.2 1196.05 2608.87 1141.61 2608.87C1087.15 2608.87 1042.85 2653.2 1042.85 2707.69C1042.85 2762.13 1087.15 2806.42 1141.61 2806.42C1196.05 2806.42 1240.33 2762.13 1240.33 2707.7ZM2949.83 1153.03C3004.2 1153.03 3048.48 1108.72 3048.48 1054.34C3048.48 999.88 3004.2 955.66 2949.82 955.66C2895.39 955.66 2851.13 999.88 2851.13 1054.34C2851.13 1108.71 2895.39 1153.03 2949.83 1153.03ZM2480.15 700.56C2480.15 646.35 2435.96 602.11 2381.68 601.95C2327.42 602.11 2283.23 646.35 2283.23 700.56C2283.23 754.93 2327.42 799.16 2381.73 799.24C2435.96 799.16 2480.15 754.93 2480.15 700.56ZM1813.5 955.66C1759.07 955.66 1714.8 999.88 1714.8 1054.34C1714.8 1108.72 1759.07 1153.03 1813.5 1153.03C1867.98 1153.03 1912.3 1108.72 1912.29 1054.34C1912.29 999.88 1867.98 955.66 1813.5 955.66ZM1861.37 1840.06C1861.37 1894.44 1905.65 1938.75 1960.13 1938.75C2014.57 1938.75 2058.83 1894.44 2058.83 1840.06C2058.83 1785.61 2014.57 1741.37 1960.13 1741.37C1905.65 1741.38 1861.37 1785.61 1861.37 1840.06ZM1187.18 1419.4C1132.7 1419.4 1088.37 1463.72 1088.37 1518.17C1088.37 1572.63 1132.7 1616.94 1187.18 1616.94C1241.62 1616.94 1285.9 1572.63 1285.9 1518.17C1285.9 1463.72 1241.62 1419.4 1187.18 1419.4ZM3576.18 1616.94C3630.61 1616.94 3674.93 1572.63 3674.93 1518.17C3674.93 1463.72 3630.61 1419.41 3576.18 1419.4C3521.75 1419.4 3477.52 1463.72 3477.52 1518.17C3477.53 1572.63 3521.75 1616.94 3576.18 1616.94ZM2803.28 1741.37C2748.86 1741.37 2704.58 1785.61 2704.58 1840.06C2704.58 1894.44 2748.86 1938.75 2803.28 1938.75C2857.71 1938.75 2901.99 1894.44 2901.99 1840.06C2901.99 1785.61 2857.71 1741.37 2803.28 1741.37ZM3720.31 2099.74C3774.75 2099.74 3819.08 2055.43 3819.08 2000.89C3819.08 1946.51 3774.75 1902.19 3720.31 1902.19C3665.83 1902.19 3621.51 1946.51 3621.51 2000.89C3621.51 2055.43 3665.83 2099.74 3720.31 2099.74ZM3621.76 2608.87C3567.32 2608.87 3523 2653.2 3523 2707.69C3523 2762.14 3567.32 2806.42 3621.75 2806.42C3676.19 2806.42 3720.47 2762.13 3720.47 2707.7C3720.47 2653.2 3676.19 2608.87 3621.76 2608.87Z" />
			<path id="Layer" class="shp1" d="M2382.09 3096.95C2187.57 3096.95 2030.33 2939.71 2030.33 2745.19C2030.33 2550.67 2187.57 2393.43 2382.09 2393.43C2576.61 2393.43 2733.85 2550.67 2733.85 2745.19C2733.85 2939.71 2576.61 3096.95 2382.09 3096.95Z" />
			<path id="Layer" fill-rule="evenodd" class="shp2" d="M2404.2 2608.02C2404.2 2608.02 2404.21 2608.02 2404.21 2608.02L2404.21 2608L2404.2 2608.02ZM2404.21 2608.02L2404.22 2730.91C2405.49 2733 2406.79 2733 2409.15 2734.05L2425.22 2741.13C2432.54 2744.4 2439.28 2747.3 2446.54 2750.68C2464.32 2758.93 2476.41 2766.39 2490.61 2776.76C2492.65 2778.27 2492.85 2778.26 2494.93 2780.16C2503.18 2787.73 2510.85 2795.04 2516.8 2805.32C2524.72 2819.03 2531.42 2832.71 2532.68 2852.13C2533.87 2870.67 2528.86 2888.5 2521.05 2902.14C2512.3 2917.42 2503.96 2926.17 2492.51 2936.02C2474.08 2951.89 2437.56 2970.5 2404.22 2972.84C2404.21 2986.9 2404.69 2995.48 2404.21 3009.43C2403.31 3036.01 2359.89 3036.13 2359.08 3008.82C2358.82 2999.52 2360.37 2979.52 2358.67 2972.58C2298.28 2965.56 2230.95 2921.02 2230.96 2854.39C2230.96 2849.54 2231.65 2845.88 2233.49 2841.9C2245.23 2816.51 2288.82 2813.98 2305.61 2836.87C2315.14 2849.86 2306.59 2864.51 2321.36 2882.17C2329.79 2892.24 2341.44 2901.97 2359.03 2906.34L2359.06 2784.84C2353.74 2783.16 2344.05 2777.12 2338.66 2774.35C2331.64 2770.75 2324.93 2766.85 2318.49 2762.96C2311.97 2759.02 2305.33 2755.31 2299.24 2751.32C2288.26 2744.12 2267.72 2730.6 2258.49 2721.92C2242.61 2707.02 2232.7 2687.76 2230.75 2663.58C2229.24 2644.62 2234.15 2626.87 2242.07 2612.65C2264.71 2571.9 2313.89 2545.88 2358.99 2541.47C2359.57 2527.59 2358.67 2522.13 2359.08 2508.22C2359.43 2496.3 2368.98 2487.65 2381.4 2487.53C2393.55 2487.4 2403.81 2496.08 2404.21 2507.57C2404.7 2521.64 2404.16 2527.64 2404.22 2541.8C2426.76 2543.43 2453.8 2553.96 2472.65 2565.28C2506.06 2585.36 2531.77 2618.55 2532.36 2659.35C2532.63 2677.06 2518.87 2688.5 2503.79 2691.92C2483.46 2696.53 2466.59 2688.69 2458.16 2678C2447.64 2664.65 2457.78 2653.48 2442.11 2632.33C2435.39 2623.26 2420.59 2611.55 2404.21 2608.02ZM2358.92 2709.73L2359.09 2607.43C2321.78 2615.42 2290.12 2659.52 2328.29 2690.73L2342.91 2700.67C2347.8 2703.75 2353.67 2707.36 2358.91 2709.73L2358.92 2709.73ZM2404.24 2806.23C2404.24 2806.23 2404.25 2806.23 2404.25 2806.23L2404.25 2806.22L2404.24 2806.23ZM2404.25 2806.23L2404.23 2906.88C2433.65 2900.67 2464.28 2869.78 2447.35 2837.58C2444.66 2832.49 2440.37 2826.36 2437.07 2823.3C2430.97 2817.67 2415.35 2809.24 2404.25 2806.23Z" />
		</g>
		<g id="_105553336136352">
			<path id="Layer" fill-rule="evenodd" class="shp1" d="M5879.11 1115.18L5821.27 1279.43L5683.63 1279.43L5971.65 474.36L6124.33 474.36L6412.36 1279.43L6273.55 1279.43L6215.71 1115.18L5879.11 1115.18ZM6178.71 1007.61L6048.01 633.99L5916.14 1007.61L6178.71 1007.61ZM6669.16 734.62C6688.44 702.23 6714.08 676.98 6746.09 658.86C6778.09 640.74 6816.07 631.67 6860.02 631.67L6860.02 768.16L6826.47 768.16C6774.8 768.16 6735.67 781.27 6709.07 807.49C6682.46 833.71 6669.16 879.21 6669.16 943.98L6669.16 1279.43L6537.3 1279.43L6537.3 642.08L6669.16 642.08L6669.16 734.62ZM7048.57 557.65C7024.66 557.65 7004.61 549.55 6988.42 533.36C6972.23 517.17 6964.13 497.12 6964.13 473.21C6964.13 449.31 6972.23 429.26 6988.42 413.07C7004.61 396.88 7024.66 388.78 7048.57 388.78C7071.7 388.78 7091.37 396.88 7107.56 413.07C7123.75 429.26 7131.85 449.31 7131.85 473.21C7131.85 497.12 7123.75 517.17 7107.56 533.36C7091.37 549.55 7071.7 557.65 7048.57 557.65ZM7066.5 1540.28C7035.26 1568.43 6989.96 1582.5 6930.58 1582.5L6862.34 1582.5L6862.34 1471.46L6907.45 1471.46C6934.44 1471.46 6953.52 1466.25 6964.71 1455.84C6975.9 1445.43 6981.48 1428.27 6981.48 1404.37L6981.48 642.1L7113.34 642.1L7113.34 1404.37C7113.34 1466.83 7097.73 1512.13 7066.5 1540.28ZM7864.05 1279.45L7732.19 1279.45L7732.19 1204.26C7711.37 1230.48 7684.18 1251.11 7650.64 1266.14C7617.09 1281.18 7581.43 1288.7 7543.65 1288.7C7493.53 1288.7 7448.61 1278.28 7408.9 1257.46C7369.19 1236.64 7337.95 1205.79 7315.2 1164.93C7292.45 1124.06 7281.07 1074.7 7281.07 1016.86L7281.07 642.09L7411.78 642.09L7411.78 997.2C7411.78 1054.27 7426.04 1098.03 7454.58 1128.48C7483.11 1158.95 7522.05 1174.17 7571.4 1174.17C7620.76 1174.17 7659.89 1158.95 7688.81 1128.48C7717.73 1098.02 7732.19 1054.26 7732.19 997.2L7732.19 642.09L7864.05 642.09L7864.05 1279.45ZM8359.13 631.68C8409.25 631.68 8454.17 642.1 8493.88 662.92C8533.59 683.74 8564.63 714.59 8587 755.45C8609.36 796.32 8620.54 845.68 8620.54 903.52L8620.54 1279.45L8489.84 1279.45L8489.84 923.18C8489.84 866.11 8475.58 822.35 8447.04 791.9C8418.51 761.43 8379.57 746.21 8330.21 746.21C8280.86 746.21 8241.73 761.43 8212.81 791.9C8183.89 822.36 8169.43 866.12 8169.43 923.18L8169.43 1279.45L8037.57 1279.45L8037.57 642.1L8169.43 642.1L8169.43 714.97C8191.02 688.75 8218.59 668.32 8252.13 653.67C8285.68 639.02 8321.34 631.69 8359.13 631.69L8359.13 631.68ZM9622.24 830.63C9602.97 866.87 9572.12 896.37 9529.71 919.12C9487.3 941.87 9432.93 953.25 9366.61 953.25L9220.86 953.25L9220.86 1279.44L9089 1279.44L9089 475.53L9366.61 475.53C9428.3 475.53 9480.55 486.14 9523.34 507.34C9566.14 528.55 9598.15 557.28 9619.35 593.51C9640.56 629.75 9651.16 670.25 9651.16 714.96C9651.16 755.83 9641.52 794.39 9622.24 830.63ZM9366.61 845.67C9416.74 845.67 9454.13 834.29 9478.81 811.54C9503.49 788.79 9515.82 756.59 9515.82 714.95C9515.82 627.04 9466.08 583.09 9366.6 583.09L9220.85 583.09L9220.85 845.67L9366.61 845.67ZM9733.29 957.87C9733.29 893.86 9746.58 837.18 9773.19 787.83C9799.8 738.47 9836.04 700.11 9881.92 672.73C9927.8 645.36 9978.51 631.67 10034.02 631.67C10084.15 631.67 10127.91 641.51 10165.3 661.17C10202.7 680.83 10232.59 705.32 10254.95 734.62L10254.95 642.09L10387.97 642.09L10387.97 1279.44L10254.95 1279.44L10254.95 1184.59C10232.59 1214.67 10202.12 1239.73 10163.57 1259.78C10125.02 1279.83 10081.06 1289.85 10031.71 1289.85C9976.95 1289.85 9926.84 1275.79 9881.33 1247.64C9835.83 1219.49 9799.79 1180.16 9773.18 1129.65C9746.57 1079.14 9733.28 1021.89 9733.28 957.88L9733.29 957.87ZM10254.97 960.18C10254.97 916.23 10245.9 878.06 10227.78 845.67C10209.66 813.27 10185.95 788.6 10156.65 771.63C10127.34 754.67 10095.73 746.19 10061.79 746.19C10027.86 746.19 9996.25 754.48 9966.94 771.06C9937.64 787.63 9913.92 811.92 9895.8 843.93C9877.69 875.94 9868.62 913.91 9868.62 957.87C9868.62 1001.82 9877.69 1040.37 9895.8 1073.54C9913.92 1106.7 9937.83 1131.95 9967.52 1149.3C9997.21 1166.65 10028.63 1175.33 10061.79 1175.33C10095.73 1175.33 10127.34 1166.84 10156.65 1149.88C10185.95 1132.92 10209.66 1108.05 10227.78 1075.27C10245.9 1042.49 10254.97 1004.13 10254.97 960.18ZM10693.36 734.62C10712.64 702.23 10738.28 676.98 10770.29 658.86C10802.29 640.74 10840.27 631.67 10884.22 631.67L10884.22 768.16L10850.67 768.16C10799 768.16 10759.87 781.27 10733.27 807.49C10706.66 833.71 10693.36 879.21 10693.36 943.98L10693.36 1279.43L10561.5 1279.43L10561.5 642.08L10693.36 642.08L10693.36 734.62ZM11252.06 1161.45L11432.5 642.09L11572.46 642.09L11329.55 1279.44L11172.24 1279.44L10930.48 642.09L11071.6 642.09L11252.05 1161.45L11252.06 1161.45ZM11627.99 957.88C11627.99 893.87 11641.28 837.19 11667.89 787.84C11694.5 738.48 11730.74 700.12 11776.62 672.74C11822.5 645.37 11873.21 631.68 11928.72 631.68C11978.85 631.68 12022.61 641.52 12060 661.18C12097.4 680.84 12127.29 705.33 12149.65 734.63L12149.65 642.1L12282.67 642.1L12282.67 1279.45L12149.65 1279.45L12149.65 1184.6C12127.29 1214.68 12096.82 1239.74 12058.27 1259.79C12019.72 1279.84 11975.76 1289.86 11926.41 1289.86C11871.65 1289.86 11821.54 1275.8 11776.03 1247.65C11730.53 1219.5 11694.49 1180.17 11667.88 1129.66C11641.27 1079.15 11627.98 1021.9 11627.98 957.89L11627.99 957.88ZM12122.48 845.68C12104.36 813.28 12080.65 788.61 12051.35 771.64C12022.04 754.68 11990.43 746.2 11956.49 746.2C11922.56 746.2 11890.95 754.49 11861.64 771.07C11832.34 787.64 11808.62 811.93 11790.5 843.94C11772.39 875.95 11763.32 913.92 11763.32 957.88C11763.32 1001.83 11772.39 1040.38 11790.5 1073.55C11808.62 1106.71 11832.53 1131.96 11862.22 1149.31C11891.91 1166.66 11923.33 1175.34 11956.49 1175.34C11990.43 1175.34 12022.04 1166.85 12051.35 1149.89C12080.65 1132.93 12104.36 1108.06 12122.48 1075.28C12140.6 1042.5 12149.67 1004.14 12149.67 960.19C12149.67 916.24 12140.6 878.07 12122.48 845.68ZM12610.04 749.67L12610.04 1102.47C12610.04 1126.37 12615.63 1143.53 12626.81 1153.94C12638 1164.36 12657.08 1169.56 12684.07 1169.56L12765.05 1169.56L12765.05 1279.44L12660.94 1279.44C12601.56 1279.44 12556.07 1265.56 12524.45 1237.8C12492.83 1210.04 12477.02 1164.93 12477.02 1102.47L12477.02 749.67L12401.83 749.67L12401.83 642.1L12477.02 642.1L12477.02 483.63L12610.04 483.63L12610.04 642.1L12765.04 642.1L12765.04 749.67L12610.04 749.67ZM12953.58 557.65C12929.67 557.65 12909.62 549.55 12893.43 533.36C12877.24 517.17 12869.14 497.12 12869.14 473.21C12869.14 449.31 12877.24 429.26 12893.43 413.07C12909.62 396.88 12929.67 388.78 12953.58 388.78C12976.71 388.78 12996.38 396.88 13012.57 413.07C13028.76 429.26 13036.86 449.31 13036.86 473.21C13036.86 497.12 13028.76 517.17 13012.57 533.36C12996.38 549.55 12976.71 557.65 12953.58 557.65ZM13018.35 1279.44L12886.49 1279.44L12886.49 642.09L13018.35 642.09L13018.35 1279.44ZM6310.57 2401.99L5823.6 2401.99C5827.45 2452.89 5846.35 2493.76 5880.28 2524.6C5914.22 2555.45 5955.86 2570.87 6005.21 2570.87C6076.16 2570.87 6126.28 2541.18 6155.59 2481.81L6297.86 2481.81C6278.59 2540.41 6243.69 2588.41 6193.18 2625.82C6142.66 2663.22 6080.01 2681.92 6005.21 2681.92C5944.29 2681.92 5889.73 2668.24 5841.53 2640.86C5793.34 2613.49 5755.56 2574.93 5728.18 2525.19C5700.8 2475.45 5687.12 2417.82 5687.12 2352.26C5687.12 2286.71 5700.41 2229.07 5727.02 2179.33C5753.63 2129.59 5791.02 2091.23 5839.22 2064.23C5887.42 2037.24 5942.75 2023.75 6005.21 2023.75C6065.35 2023.75 6118.95 2036.86 6165.99 2063.08C6213.03 2089.3 6249.66 2126.12 6275.88 2173.54C6302.1 2220.97 6315.2 2275.53 6315.2 2337.22C6315.2 2361.12 6313.66 2382.71 6310.57 2401.99ZM6177.55 2295.58C6176.78 2246.99 6159.43 2208.05 6125.5 2178.75C6091.56 2149.44 6049.54 2134.79 5999.41 2134.79C5953.92 2134.79 5914.98 2149.25 5882.59 2178.17C5850.19 2207.09 5830.92 2246.22 5824.74 2295.58L6177.55 2295.58ZM6848.45 2565.09L6848.45 2671.5L6444.75 2671.5L6444.75 1867.59L6576.61 1867.59L6576.61 2565.09L6848.45 2565.09ZM7537.84 2401.99L7050.87 2401.99C7054.72 2452.89 7073.62 2493.76 7107.55 2524.6C7141.49 2555.45 7183.13 2570.87 7232.48 2570.87C7303.43 2570.87 7353.55 2541.18 7382.86 2481.81L7525.13 2481.81C7505.86 2540.41 7470.96 2588.41 7420.45 2625.82C7369.93 2663.22 7307.28 2681.92 7232.48 2681.92C7171.56 2681.92 7117 2668.24 7068.8 2640.86C7020.61 2613.49 6982.83 2574.93 6955.45 2525.19C6928.07 2475.45 6914.39 2417.82 6914.39 2352.26C6914.39 2286.71 6927.68 2229.07 6954.29 2179.33C6980.9 2129.59 7018.29 2091.23 7066.49 2064.23C7114.69 2037.24 7170.02 2023.75 7232.48 2023.75C7292.62 2023.75 7346.22 2036.86 7393.26 2063.08C7440.3 2089.3 7476.93 2126.12 7503.15 2173.54C7529.37 2220.97 7542.47 2275.53 7542.47 2337.22C7542.47 2361.12 7540.93 2382.71 7537.84 2401.99ZM7404.82 2295.58C7404.05 2246.99 7386.7 2208.05 7352.77 2178.75C7318.83 2149.44 7276.81 2134.79 7226.68 2134.79C7181.19 2134.79 7142.25 2149.25 7109.86 2178.17C7077.46 2207.09 7058.19 2246.22 7052.01 2295.58L7404.82 2295.58ZM7628.07 2349.95C7628.07 2285.94 7641.36 2229.26 7667.97 2179.91C7694.58 2130.55 7730.82 2092.19 7776.7 2064.81C7822.58 2037.44 7873.29 2023.75 7928.8 2023.75C7978.93 2023.75 8022.69 2033.59 8060.08 2053.25C8097.48 2072.91 8127.37 2097.4 8149.73 2126.7L8149.73 2034.17L8282.75 2034.17L8282.75 2671.52L8149.73 2671.52L8149.73 2576.67C8127.37 2606.75 8096.9 2631.81 8058.35 2651.86C8019.8 2671.91 7975.84 2681.93 7926.49 2681.93C7871.73 2681.93 7821.62 2667.87 7776.11 2639.72C7730.61 2611.57 7694.57 2572.24 7667.96 2521.73C7641.35 2471.22 7628.06 2413.97 7628.06 2349.96L7628.07 2349.95ZM8149.75 2352.26C8149.75 2308.31 8140.68 2270.14 8122.56 2237.75C8104.44 2205.35 8080.73 2180.68 8051.43 2163.71C8022.12 2146.75 7990.51 2138.27 7956.57 2138.27C7922.64 2138.27 7891.03 2146.56 7861.72 2163.14C7832.42 2179.71 7808.7 2204 7790.58 2236.01C7772.47 2268.02 7763.4 2305.99 7763.4 2349.95C7763.4 2393.9 7772.47 2432.45 7790.58 2465.62C7808.7 2498.78 7832.61 2524.03 7862.3 2541.38C7891.99 2558.73 7923.41 2567.41 7956.57 2567.41C7990.51 2567.41 8022.12 2558.92 8051.43 2541.96C8080.73 2525 8104.44 2500.13 8122.56 2467.35C8140.68 2434.57 8149.75 2396.21 8149.75 2352.26ZM8588.14 2126.7C8607.42 2094.31 8633.06 2069.06 8665.07 2050.94C8697.07 2032.82 8735.05 2023.75 8779 2023.75L8779 2160.24L8745.45 2160.24C8693.78 2160.24 8654.65 2173.35 8628.05 2199.57C8601.44 2225.79 8588.14 2271.29 8588.14 2336.06L8588.14 2671.51L8456.28 2671.51L8456.28 2034.16L8588.14 2034.16L8588.14 2126.7ZM9222.03 2023.75C9272.15 2023.75 9317.07 2034.17 9356.78 2054.99C9396.49 2075.81 9427.53 2106.66 9449.9 2147.52C9472.26 2188.39 9483.44 2237.75 9483.44 2295.59L9483.44 2671.52L9352.74 2671.52L9352.74 2315.25C9352.74 2258.18 9338.48 2214.42 9309.94 2183.97C9281.41 2153.5 9242.47 2138.28 9193.11 2138.28C9143.76 2138.28 9104.63 2153.5 9075.71 2183.97C9046.79 2214.43 9032.33 2258.19 9032.33 2315.25L9032.33 2671.52L8900.47 2671.52L8900.47 2034.17L9032.33 2034.17L9032.33 2107.04C9053.92 2080.82 9081.49 2060.39 9115.03 2045.74C9148.58 2031.09 9184.24 2023.76 9222.03 2023.76L9222.03 2023.75ZM9718.26 1949.72C9694.35 1949.72 9674.3 1941.62 9658.11 1925.43C9641.92 1909.24 9633.82 1889.19 9633.82 1865.28C9633.82 1841.38 9641.92 1821.33 9658.11 1805.14C9674.3 1788.95 9694.35 1780.85 9718.26 1780.85C9741.39 1780.85 9761.06 1788.95 9777.25 1805.14C9793.44 1821.33 9801.54 1841.38 9801.54 1865.28C9801.54 1889.19 9793.44 1909.24 9777.25 1925.43C9761.06 1941.62 9741.39 1949.72 9718.26 1949.72ZM9783.03 2034.16L9783.03 2671.51L9651.17 2671.51L9651.17 2034.16L9783.03 2034.16ZM10278.11 2023.74C10328.23 2023.74 10373.15 2034.16 10412.86 2054.98C10452.57 2075.8 10483.61 2106.65 10505.98 2147.51C10528.34 2188.38 10539.52 2237.74 10539.52 2295.58L10539.52 2671.51L10408.82 2671.51L10408.82 2315.24C10408.82 2258.17 10394.56 2214.41 10366.02 2183.96C10337.49 2153.49 10298.55 2138.27 10249.19 2138.27C10199.84 2138.27 10160.71 2153.49 10131.79 2183.96C10102.87 2214.42 10088.41 2258.18 10088.41 2315.24L10088.41 2671.51L9956.55 2671.51L9956.55 2034.16L10088.41 2034.16L10088.41 2107.03C10110 2080.81 10137.57 2060.38 10171.11 2045.73C10204.66 2031.08 10240.32 2023.75 10278.11 2023.75L10278.11 2023.74ZM10964.04 2023.74C11013.4 2023.74 11057.16 2033.58 11095.32 2053.24C11133.49 2072.9 11163.38 2097.39 11184.97 2126.69L11184.97 2034.16L11317.99 2034.16L11317.99 2681.91C11317.99 2740.52 11305.65 2792.76 11280.98 2838.65C11256.3 2884.53 11220.64 2920.58 11173.98 2946.8C11127.33 2973.02 11071.61 2986.12 11006.84 2986.12C10920.47 2986.12 10848.76 2965.88 10791.69 2925.4C10734.62 2884.92 10702.24 2829.97 10694.52 2760.57L10825.23 2760.57C10835.26 2793.73 10856.65 2820.52 10889.42 2840.96C10922.2 2861.4 10961.33 2871.62 11006.83 2871.62C11060.04 2871.62 11103.03 2855.43 11135.8 2823.03C11168.57 2790.64 11184.96 2743.6 11184.96 2681.91L11184.96 2575.5C11162.6 2605.58 11132.33 2630.83 11094.16 2651.27C11055.99 2671.7 11012.61 2681.92 10964.03 2681.92C10908.51 2681.92 10857.81 2667.86 10811.93 2639.71C10766.05 2611.56 10729.81 2572.23 10703.2 2521.72C10676.59 2471.21 10663.3 2413.96 10663.3 2349.95C10663.3 2285.94 10676.59 2229.26 10703.2 2179.91C10729.81 2130.55 10766.05 2092.19 10811.93 2064.81C10857.81 2037.44 10908.52 2023.75 10964.03 2023.75L10964.04 2023.74ZM11184.98 2352.25C11184.98 2308.3 11175.91 2270.13 11157.79 2237.74C11139.67 2205.34 11115.96 2180.67 11086.66 2163.7C11057.35 2146.74 11025.74 2138.26 10991.8 2138.26C10957.87 2138.26 10926.26 2146.55 10896.95 2163.13C10867.65 2179.7 10843.93 2203.99 10825.81 2236C10807.7 2268.01 10798.63 2305.98 10798.63 2349.94C10798.63 2393.89 10807.7 2432.44 10825.81 2465.61C10843.93 2498.77 10867.84 2524.02 10897.53 2541.37C10927.22 2558.72 10958.64 2567.4 10991.8 2567.4C11025.74 2567.4 11057.35 2558.91 11086.66 2541.95C11115.96 2524.99 11139.67 2500.12 11157.79 2467.34C11175.91 2434.56 11184.98 2396.2 11184.98 2352.25ZM13000.82 2671.5L12868.96 2671.5L12868.96 1867.59L13000.82 1867.59L13000.82 2671.5ZM13495.9 2023.74C13546.02 2023.74 13590.94 2034.16 13630.65 2054.98C13670.36 2075.8 13701.4 2106.65 13723.77 2147.51C13746.13 2188.38 13757.31 2237.74 13757.31 2295.58L13757.31 2671.51L13626.61 2671.51L13626.61 2315.24C13626.61 2258.17 13612.35 2214.41 13583.81 2183.96C13555.28 2153.49 13516.34 2138.27 13466.98 2138.27C13417.63 2138.27 13378.5 2153.49 13349.58 2183.96C13320.66 2214.42 13306.2 2258.18 13306.2 2315.24L13306.2 2671.51L13174.34 2671.51L13174.34 2034.16L13306.2 2034.16L13306.2 2107.03C13327.79 2080.81 13355.36 2060.38 13388.9 2045.73C13422.45 2031.08 13458.11 2023.75 13495.9 2023.75L13495.9 2023.74ZM14171.42 2553.51L14351.86 2034.15L14491.82 2034.15L14248.91 2671.5L14091.6 2671.5L13849.84 2034.15L13990.96 2034.15L14171.41 2553.51L14171.42 2553.51ZM15170.81 2401.98L14683.84 2401.98C14687.69 2452.88 14706.59 2493.75 14740.52 2524.59C14774.46 2555.44 14816.1 2570.86 14865.45 2570.86C14936.4 2570.86 14986.52 2541.17 15015.83 2481.8L15158.1 2481.8C15138.83 2540.4 15103.93 2588.4 15053.42 2625.81C15002.9 2663.21 14940.25 2681.91 14865.45 2681.91C14804.53 2681.91 14749.97 2668.23 14701.77 2640.85C14653.58 2613.48 14615.8 2574.92 14588.42 2525.18C14561.04 2475.44 14547.36 2417.81 14547.36 2352.25C14547.36 2286.7 14560.65 2229.06 14587.26 2179.32C14613.87 2129.58 14651.26 2091.22 14699.46 2064.22C14747.66 2037.23 14802.99 2023.74 14865.45 2023.74C14925.59 2023.74 14979.19 2036.85 15026.23 2063.07C15073.27 2089.29 15109.9 2126.11 15136.12 2173.53C15162.34 2220.96 15175.44 2275.52 15175.44 2337.21C15175.44 2361.11 15173.9 2382.7 15170.81 2401.98ZM15037.79 2295.57C15037.02 2246.98 15019.67 2208.04 14985.74 2178.74C14951.8 2149.43 14909.78 2134.78 14859.65 2134.78C14814.16 2134.78 14775.22 2149.24 14742.83 2178.16C14710.43 2207.08 14691.16 2246.21 14684.98 2295.57L15037.79 2295.57ZM15401.59 2654.72C15361.88 2636.6 15330.45 2611.92 15307.32 2580.69C15284.18 2549.45 15271.85 2514.57 15270.3 2476L15406.8 2476C15409.11 2502.99 15422.02 2525.55 15445.54 2543.67C15469.06 2561.79 15498.56 2570.85 15534.03 2570.85C15571.04 2570.85 15599.77 2563.72 15620.2 2549.45C15640.63 2535.19 15650.86 2516.87 15650.86 2494.51C15650.86 2470.6 15639.48 2452.87 15616.73 2441.3C15593.98 2429.72 15557.93 2417 15508.58 2403.13C15460.77 2390.02 15421.83 2377.29 15391.75 2364.96C15361.67 2352.63 15335.65 2333.72 15313.67 2308.28C15291.69 2282.83 15280.7 2249.29 15280.7 2207.64C15280.7 2173.7 15290.73 2142.67 15310.78 2114.52C15330.83 2086.37 15359.55 2064.2 15396.95 2048.01C15434.35 2031.82 15477.35 2023.72 15525.92 2023.72C15598.41 2023.72 15656.82 2042.03 15701.16 2078.67C15745.49 2115.29 15769.21 2165.23 15772.29 2228.47L15640.43 2228.47C15638.12 2199.93 15626.56 2177.19 15605.73 2160.22C15584.91 2143.26 15556.76 2134.77 15521.29 2134.77C15486.58 2134.77 15459.99 2141.33 15441.47 2154.44C15422.97 2167.54 15413.71 2184.9 15413.71 2206.49C15413.71 2223.45 15419.88 2237.73 15432.21 2249.29C15444.55 2260.86 15459.59 2269.92 15477.33 2276.47C15495.06 2283.03 15521.28 2291.31 15555.99 2301.34C15602.25 2313.68 15640.23 2326.21 15669.92 2338.93C15699.61 2351.65 15725.25 2370.36 15746.84 2395.04C15768.44 2419.71 15779.62 2452.49 15780.39 2493.36C15780.39 2529.6 15770.36 2561.99 15750.32 2590.53C15730.27 2619.06 15701.93 2641.42 15665.3 2657.61C15628.68 2673.8 15585.68 2681.9 15536.34 2681.9C15486.22 2681.9 15441.3 2672.84 15401.59 2654.72ZM16076.53 2141.72L16076.53 2494.52C16076.53 2518.42 16082.12 2535.58 16093.3 2545.99C16104.49 2556.41 16123.57 2561.61 16150.56 2561.61L16231.54 2561.61L16231.54 2671.49L16127.43 2671.49C16068.05 2671.49 16022.56 2657.61 15990.94 2629.85C15959.32 2602.09 15943.51 2556.98 15943.51 2494.52L15943.51 2141.72L15868.32 2141.72L15868.32 2034.15L15943.51 2034.15L15943.51 1875.68L16076.53 1875.68L16076.53 2034.15L16231.53 2034.15L16231.53 2141.72L16076.53 2141.72ZM17124.51 2023.73C17174.64 2023.73 17219.55 2034.15 17259.26 2054.97C17298.98 2075.79 17330.21 2106.64 17352.96 2147.5C17375.71 2188.37 17387.09 2237.73 17387.09 2295.57L17387.09 2671.5L17256.38 2671.5L17256.38 2315.23C17256.38 2258.16 17242.12 2214.4 17213.58 2183.95C17185.05 2153.48 17146.11 2138.26 17096.76 2138.26C17047.4 2138.26 17008.27 2153.48 16979.35 2183.95C16950.43 2214.41 16935.97 2258.17 16935.97 2315.23L16935.97 2671.5L16805.27 2671.5L16805.27 2315.23C16805.27 2258.16 16791.01 2214.4 16762.47 2183.95C16733.94 2153.48 16695 2138.26 16645.64 2138.26C16596.29 2138.26 16557.16 2153.48 16528.24 2183.95C16499.32 2214.41 16484.86 2258.17 16484.86 2315.23L16484.86 2671.5L16353 2671.5L16353 2034.15L16484.86 2034.15L16484.86 2107.02C16506.45 2080.8 16533.83 2060.37 16566.98 2045.72C16600.15 2031.07 16635.62 2023.74 16673.4 2023.74C16724.3 2023.74 16769.79 2034.54 16809.89 2056.13C16849.99 2077.73 16880.83 2108.96 16902.43 2149.83C16921.7 2111.27 16951.78 2080.62 16992.65 2057.87C17033.52 2035.12 17077.47 2023.74 17124.51 2023.74L17124.51 2023.73ZM18134.31 2401.98L17647.34 2401.98C17651.19 2452.88 17670.09 2493.75 17704.02 2524.59C17737.96 2555.44 17779.6 2570.86 17828.95 2570.86C17899.9 2570.86 17950.02 2541.17 17979.33 2481.8L18121.6 2481.8C18102.33 2540.4 18067.43 2588.4 18016.92 2625.81C17966.4 2663.21 17903.75 2681.91 17828.95 2681.91C17768.03 2681.91 17713.47 2668.23 17665.27 2640.85C17617.08 2613.48 17579.3 2574.92 17551.92 2525.18C17524.54 2475.44 17510.86 2417.81 17510.86 2352.25C17510.86 2286.7 17524.15 2229.06 17550.76 2179.32C17577.37 2129.58 17614.76 2091.22 17662.96 2064.22C17711.16 2037.23 17766.49 2023.74 17828.95 2023.74C17889.09 2023.74 17942.69 2036.85 17989.73 2063.07C18036.77 2089.29 18073.4 2126.11 18099.62 2173.53C18125.84 2220.96 18138.94 2275.52 18138.94 2337.21C18138.94 2361.11 18137.4 2382.7 18134.31 2401.98ZM18001.29 2295.57C18000.52 2246.98 17983.17 2208.04 17949.24 2178.74C17915.3 2149.43 17873.28 2134.78 17823.15 2134.78C17777.66 2134.78 17738.72 2149.24 17706.33 2178.16C17673.93 2207.08 17654.66 2246.21 17648.48 2295.57L18001.29 2295.57ZM18590.07 2023.74C18640.19 2023.74 18685.11 2034.16 18724.82 2054.98C18764.53 2075.8 18795.57 2106.65 18817.94 2147.51C18840.3 2188.38 18851.48 2237.74 18851.48 2295.58L18851.48 2671.51L18720.78 2671.51L18720.78 2315.24C18720.78 2258.17 18706.52 2214.41 18677.98 2183.96C18649.45 2153.49 18610.51 2138.27 18561.15 2138.27C18511.8 2138.27 18472.67 2153.49 18443.75 2183.96C18414.83 2214.42 18400.37 2258.18 18400.37 2315.24L18400.37 2671.51L18268.51 2671.51L18268.51 2034.16L18400.37 2034.16L18400.37 2107.03C18421.96 2080.81 18449.53 2060.38 18483.07 2045.73C18516.62 2031.08 18552.28 2023.75 18590.07 2023.75L18590.07 2023.74ZM19173.05 2494.53C19173.05 2518.43 19178.64 2535.59 19189.82 2546C19201.01 2556.42 19220.09 2561.62 19247.08 2561.62L19328.06 2561.62L19328.06 2671.5L19223.95 2671.5C19164.57 2671.5 19119.08 2657.62 19087.46 2629.86C19055.84 2602.1 19040.03 2556.99 19040.03 2494.53L19040.03 2141.73L18964.84 2141.73L18964.84 2034.16L19040.03 2034.16L19040.03 1875.69L19173.05 1875.69L19173.05 2034.16L19328.05 2034.16L19328.05 2141.73L19173.05 2141.73L19173.05 2494.53ZM12319.54 2671.5L12252.83 2593.03C12213.7 2626.58 12173.4 2651.25 12132.15 2667.26C12091.09 2683.25 12045.98 2691.36 11997.01 2691.36C11920.85 2691.36 11858.97 2669.38 11811.35 2625.23C11763.74 2581.08 11740.02 2524.4 11740.02 2455.19C11740.02 2408.15 11754.67 2364.78 11783.98 2325.07C11813.48 2285.35 11860.13 2245.44 11924.13 2205.54L11890.78 2169.49C11872.27 2149.44 11858.19 2127.66 11848.37 2103.95C11838.53 2080.23 11833.72 2056.13 11833.72 2031.65C11833.72 1977.47 11853.57 1932.94 11893.28 1898.05C11932.99 1863.15 11984.08 1845.8 12046.74 1845.8C12108.81 1845.8 12158.16 1861.42 12194.61 1892.84C12231.04 1924.27 12249.36 1966.88 12249.36 2020.28C12249.36 2060.57 12236.64 2097.4 12211 2130.74C12185.36 2164.1 12144.49 2197.06 12088.39 2229.84L12260.74 2429.75C12277.32 2413.18 12294.29 2394.29 12311.64 2373.26C12328.79 2352.25 12347.3 2327.96 12366.97 2300.39L12446.02 2384.63C12430.98 2408.73 12414.2 2431.48 12395.7 2453.26C12377.39 2474.85 12357.34 2495.1 12335.94 2513.99L12474.74 2671.49L12319.56 2671.49L12319.54 2671.5ZM12176.49 2504.92C12176.49 2504.92 12176.49 2504.92 12176.49 2504.92L12176.49 2504.93L12176.49 2504.92ZM11995.85 2296.53L11974.84 2310.6C11935.32 2336.24 11907.75 2359.57 11892.14 2380.97C11876.52 2402.17 11868.81 2425.69 11868.81 2451.72C11868.81 2488.35 11881.53 2519.19 11907.17 2544.45C11932.81 2569.71 11964.63 2582.23 12002.6 2582.23C12030.94 2582.23 12059.48 2575.87 12088.19 2562.96C12116.92 2550.24 12146.41 2530.95 12176.49 2504.92L11995.85 2296.53ZM12028.04 2144.04L12058.5 2126.5C12079.51 2113.97 12095.32 2099.7 12105.93 2083.32C12116.54 2066.93 12121.73 2048.42 12121.73 2028.18C12121.73 2004.85 12114.6 1985.77 12100.33 1970.92C12086.07 1956.08 12067.36 1948.55 12044.42 1948.55C12019.17 1948.55 11998.93 1956.08 11983.31 1971.11C11967.89 1986.14 11960.18 2005.62 11960.18 2029.33C11960.18 2041.08 11962.3 2052.27 11966.74 2063.26C11971.17 2074.25 11977.73 2084.47 11986.78 2094.3L12028.04 2144.04ZM6577.81 3259.66L6577.81 4063.57L6445.95 4063.57L6445.95 3512.98L6200.73 4063.57L6109.35 4063.57L5862.97 3512.98L5862.97 4063.57L5731.11 4063.57L5731.11 3259.66L5873.39 3259.66L6155.63 3890.07L6436.71 3259.66L6577.81 3259.66ZM6707.36 3742.01C6707.36 3678 6720.65 3621.32 6747.26 3571.97C6773.87 3522.61 6810.11 3484.25 6855.99 3456.87C6901.87 3429.5 6952.58 3415.81 7008.09 3415.81C7058.22 3415.81 7101.98 3425.65 7139.37 3445.31C7176.77 3464.97 7206.66 3489.46 7229.02 3518.76L7229.02 3426.23L7362.04 3426.23L7362.04 4063.58L7229.02 4063.58L7229.02 3968.73C7206.66 3998.81 7176.19 4023.87 7137.64 4043.92C7099.09 4063.97 7055.13 4073.99 7005.78 4073.99C6951.02 4073.99 6900.91 4059.93 6855.4 4031.78C6809.9 4003.63 6773.86 3964.3 6747.25 3913.79C6720.64 3863.28 6707.35 3806.03 6707.35 3742.02L6707.36 3742.01ZM7229.04 3744.32C7229.04 3700.37 7219.97 3662.2 7201.85 3629.81C7183.73 3597.41 7160.02 3572.74 7130.72 3555.77C7101.41 3538.81 7069.8 3530.33 7035.86 3530.33C7001.93 3530.33 6970.32 3538.62 6941.01 3555.2C6911.71 3571.77 6887.99 3596.06 6869.87 3628.07C6851.76 3660.08 6842.69 3698.05 6842.69 3742.01C6842.69 3785.96 6851.76 3824.51 6869.87 3857.68C6887.99 3890.84 6911.9 3916.09 6941.59 3933.44C6971.28 3950.79 7002.7 3959.47 7035.86 3959.47C7069.8 3959.47 7101.41 3950.98 7130.72 3934.02C7160.02 3917.06 7183.73 3892.19 7201.85 3859.41C7219.97 3826.63 7229.04 3788.27 7229.04 3744.32ZM7857.14 3415.81C7907.26 3415.81 7952.18 3426.23 7991.89 3447.05C8031.6 3467.87 8062.64 3498.72 8085.01 3539.58C8107.37 3580.45 8118.55 3629.81 8118.55 3687.65L8118.55 4063.58L7987.85 4063.58L7987.85 3707.31C7987.85 3650.24 7973.59 3606.48 7945.05 3576.03C7916.52 3545.56 7877.58 3530.34 7828.22 3530.34C7778.87 3530.34 7739.74 3545.56 7710.82 3576.03C7681.9 3606.49 7667.44 3650.25 7667.44 3707.31L7667.44 4063.58L7535.58 4063.58L7535.58 3426.23L7667.44 3426.23L7667.44 3499.1C7689.03 3472.88 7716.6 3452.45 7750.14 3437.8C7783.69 3423.15 7819.35 3415.82 7857.14 3415.82L7857.14 3415.81ZM8242.32 3742.01C8242.32 3678 8255.61 3621.32 8282.22 3571.97C8308.83 3522.61 8345.07 3484.25 8390.95 3456.87C8436.83 3429.5 8487.54 3415.81 8543.05 3415.81C8593.18 3415.81 8636.94 3425.65 8674.33 3445.31C8711.73 3464.97 8741.62 3489.46 8763.98 3518.76L8763.98 3426.23L8897 3426.23L8897 4063.58L8763.98 4063.58L8763.98 3968.73C8741.62 3998.81 8711.15 4023.87 8672.6 4043.92C8634.05 4063.97 8590.09 4073.99 8540.74 4073.99C8485.98 4073.99 8435.87 4059.93 8390.36 4031.78C8344.86 4003.63 8308.82 3964.3 8282.21 3913.79C8255.6 3863.28 8242.31 3806.03 8242.31 3742.02L8242.32 3742.01ZM8764 3744.32C8764 3700.37 8754.93 3662.2 8736.81 3629.81C8718.69 3597.41 8694.98 3572.74 8665.68 3555.77C8636.37 3538.81 8604.76 3530.33 8570.82 3530.33C8536.89 3530.33 8505.28 3538.62 8475.97 3555.2C8446.67 3571.77 8422.95 3596.06 8404.83 3628.07C8386.72 3660.08 8377.65 3698.05 8377.65 3742.01C8377.65 3785.96 8386.72 3824.51 8404.83 3857.68C8422.95 3890.84 8446.86 3916.09 8476.55 3933.44C8506.24 3950.79 8537.66 3959.47 8570.82 3959.47C8604.76 3959.47 8636.37 3950.98 8665.68 3934.02C8694.98 3917.06 8718.69 3892.19 8736.81 3859.41C8754.93 3826.63 8764 3788.27 8764 3744.32ZM9327.32 3415.81C9376.68 3415.81 9420.44 3425.65 9458.6 3445.31C9496.77 3464.97 9526.66 3489.46 9548.25 3518.76L9548.25 3426.23L9681.27 3426.23L9681.27 4073.98C9681.27 4132.59 9668.93 4184.83 9644.26 4230.72C9619.58 4276.6 9583.92 4312.65 9537.26 4338.87C9490.61 4365.09 9434.89 4378.19 9370.12 4378.19C9283.75 4378.19 9212.04 4357.95 9154.97 4317.47C9097.9 4276.99 9065.52 4222.04 9057.8 4152.64L9188.51 4152.64C9198.54 4185.8 9219.93 4212.59 9252.7 4233.03C9285.48 4253.47 9324.61 4263.69 9370.11 4263.69C9423.32 4263.69 9466.31 4247.5 9499.08 4215.1C9531.85 4182.71 9548.24 4135.67 9548.24 4073.98L9548.24 3967.57C9525.88 3997.65 9495.61 4022.9 9457.44 4043.34C9419.27 4063.77 9375.89 4073.99 9327.31 4073.99C9271.79 4073.99 9221.09 4059.93 9175.21 4031.78C9129.33 4003.63 9093.09 3964.3 9066.48 3913.79C9039.87 3863.28 9026.58 3806.03 9026.58 3742.02C9026.58 3678.01 9039.87 3621.33 9066.48 3571.98C9093.09 3522.62 9129.33 3484.26 9175.21 3456.88C9221.09 3429.51 9271.8 3415.82 9327.31 3415.82L9327.32 3415.81ZM9548.26 3744.32C9548.26 3700.37 9539.19 3662.2 9521.07 3629.81C9502.95 3597.41 9479.24 3572.74 9449.94 3555.77C9420.63 3538.81 9389.02 3530.33 9355.08 3530.33C9321.15 3530.33 9289.54 3538.62 9260.23 3555.2C9230.93 3571.77 9207.21 3596.06 9189.09 3628.07C9170.98 3660.08 9161.91 3698.05 9161.91 3742.01C9161.91 3785.96 9170.98 3824.51 9189.09 3857.68C9207.21 3890.84 9231.12 3916.09 9260.81 3933.44C9290.5 3950.79 9321.92 3959.47 9355.08 3959.47C9389.02 3959.47 9420.63 3950.98 9449.94 3934.02C9479.24 3917.06 9502.95 3892.19 9521.07 3859.41C9539.19 3826.63 9548.26 3788.27 9548.26 3744.32ZM10434.3 3794.06L9947.33 3794.06C9951.18 3844.96 9970.08 3885.83 10004.01 3916.67C10037.95 3947.52 10079.59 3962.94 10128.94 3962.94C10199.89 3962.94 10250.01 3933.25 10279.32 3873.88L10421.59 3873.88C10402.32 3932.48 10367.42 3980.48 10316.91 4017.89C10266.39 4055.29 10203.74 4073.99 10128.94 4073.99C10068.02 4073.99 10013.46 4060.31 9965.26 4032.93C9917.07 4005.56 9879.29 3967 9851.91 3917.26C9824.53 3867.52 9810.85 3809.89 9810.85 3744.33C9810.85 3678.78 9824.14 3621.14 9850.75 3571.4C9877.36 3521.66 9914.75 3483.3 9962.95 3456.3C10011.15 3429.31 10066.48 3415.82 10128.94 3415.82C10189.08 3415.82 10242.68 3428.93 10289.72 3455.15C10336.76 3481.37 10373.39 3518.19 10399.61 3565.61C10425.83 3613.04 10438.93 3667.6 10438.93 3729.29C10438.93 3753.19 10437.39 3774.78 10434.3 3794.06ZM10301.28 3687.65C10300.51 3639.06 10283.16 3600.12 10249.23 3570.82C10215.29 3541.51 10173.27 3526.86 10123.14 3526.86C10077.65 3526.86 10038.71 3541.32 10006.32 3570.24C9973.92 3599.16 9954.65 3638.29 9948.47 3687.65L10301.28 3687.65ZM11340.01 3415.82C11390.14 3415.82 11435.05 3426.24 11474.76 3447.06C11514.48 3467.88 11545.71 3498.73 11568.46 3539.59C11591.21 3580.46 11602.59 3629.82 11602.59 3687.66L11602.59 4063.59L11471.88 4063.59L11471.88 3707.32C11471.88 3650.25 11457.62 3606.49 11429.08 3576.04C11400.55 3545.57 11361.61 3530.35 11312.26 3530.35C11262.9 3530.35 11223.77 3545.57 11194.85 3576.04C11165.93 3606.5 11151.47 3650.26 11151.47 3707.32L11151.47 4063.59L11020.77 4063.59L11020.77 3707.32C11020.77 3650.25 11006.51 3606.49 10977.97 3576.04C10949.44 3545.57 10910.5 3530.35 10861.14 3530.35C10811.79 3530.35 10772.66 3545.57 10743.74 3576.04C10714.82 3606.5 10700.36 3650.26 10700.36 3707.32L10700.36 4063.59L10568.5 4063.59L10568.5 3426.24L10700.36 3426.24L10700.36 3499.11C10721.95 3472.89 10749.33 3452.46 10782.48 3437.81C10815.65 3423.16 10851.12 3415.83 10888.9 3415.83C10939.8 3415.83 10985.29 3426.63 11025.39 3448.22C11065.49 3469.82 11096.33 3501.05 11117.93 3541.92C11137.2 3503.36 11167.28 3472.71 11208.15 3449.96C11249.02 3427.21 11292.97 3415.83 11340.01 3415.83L11340.01 3415.82Z" />
			<path id="Layer" fill-rule="evenodd" class="shp1" d="M12349.77 3794.06L11862.8 3794.06C11866.65 3844.96 11885.55 3885.83 11919.48 3916.67C11953.42 3947.52 11995.06 3962.94 12044.41 3962.94C12115.36 3962.94 12165.48 3933.25 12194.79 3873.88L12337.06 3873.88C12317.79 3932.48 12282.89 3980.48 12232.38 4017.89C12181.86 4055.29 12119.21 4073.99 12044.41 4073.99C11983.49 4073.99 11928.93 4060.31 11880.73 4032.93C11832.54 4005.56 11794.76 3967 11767.38 3917.26C11740 3867.52 11726.32 3809.89 11726.32 3744.33C11726.32 3678.78 11739.61 3621.14 11766.22 3571.4C11792.83 3521.66 11830.22 3483.3 11878.42 3456.3C11926.62 3429.31 11981.95 3415.82 12044.41 3415.82C12104.55 3415.82 12158.15 3428.93 12205.19 3455.15C12252.23 3481.37 12288.86 3518.19 12315.08 3565.61C12341.3 3613.04 12354.4 3667.6 12354.4 3729.29C12354.4 3753.19 12352.86 3774.78 12349.77 3794.06ZM12216.75 3687.65C12215.98 3639.06 12198.63 3600.12 12164.7 3570.82C12130.76 3541.51 12088.74 3526.86 12038.61 3526.86C11993.12 3526.86 11954.18 3541.32 11921.79 3570.24C11889.39 3599.16 11870.12 3638.29 11863.94 3687.65L12216.75 3687.65ZM12805.53 3415.82C12855.65 3415.82 12900.57 3426.24 12940.28 3447.06C12979.99 3467.88 13011.03 3498.73 13033.4 3539.59C13055.76 3580.46 13066.94 3629.82 13066.94 3687.66L13066.94 4063.59L12936.24 4063.59L12936.24 3707.32C12936.24 3650.25 12921.98 3606.49 12893.44 3576.04C12864.91 3545.57 12825.97 3530.35 12776.61 3530.35C12727.26 3530.35 12688.13 3545.57 12659.21 3576.04C12630.29 3606.5 12615.83 3650.26 12615.83 3707.32L12615.83 4063.59L12483.97 4063.59L12483.97 3426.24L12615.83 3426.24L12615.83 3499.11C12637.42 3472.89 12664.99 3452.46 12698.53 3437.81C12732.08 3423.16 12767.74 3415.83 12805.53 3415.83L12805.53 3415.82ZM13388.51 3533.81L13388.51 3886.61C13388.51 3910.51 13394.1 3927.67 13405.28 3938.08C13416.47 3948.5 13435.55 3953.7 13462.54 3953.7L13543.52 3953.7L13543.52 4063.58L13439.41 4063.58C13380.03 4063.58 13334.54 4049.7 13302.92 4021.94C13271.3 3994.18 13255.49 3949.07 13255.49 3886.61L13255.49 3533.81L13180.3 3533.81L13180.3 3426.24L13255.49 3426.24L13255.49 3267.77L13388.51 3267.77L13388.51 3426.24L13543.51 3426.24L13543.51 3533.81L13388.51 3533.81ZM13921.75 3659.85C13921.75 3659.86 13921.75 3659.86 13921.75 3659.87C13921.75 3659.88 13921.75 3659.88 13921.75 3659.89L13921.75 3659.85ZM13976.69 3448.21C14013.32 3385.75 14063.06 3336.98 14125.91 3301.89C14188.76 3266.81 14257.58 3249.25 14332.39 3249.25C14417.98 3249.25 14494.13 3270.27 14560.84 3312.29C14627.54 3354.32 14675.93 3413.89 14706.01 3491L14547.54 3491C14526.72 3448.59 14497.8 3416.97 14460.79 3396.15C14423.78 3375.33 14380.97 3364.92 14332.4 3364.92C14279.18 3364.92 14231.76 3376.86 14190.12 3400.77C14148.48 3424.67 14115.9 3458.98 14092.38 3503.72C14068.86 3548.45 14057.1 3600.5 14057.1 3659.87C14057.1 3719.25 14068.86 3771.3 14092.38 3816.03C14115.9 3860.75 14148.48 3895.27 14190.12 3919.56C14231.76 3943.85 14279.18 3955.99 14332.4 3955.99C14380.98 3955.99 14423.78 3945.57 14460.79 3924.75C14497.8 3903.94 14526.72 3872.31 14547.54 3829.9L14706.01 3829.9C14675.93 3907.02 14627.54 3966.39 14560.84 4008.03C14494.13 4049.67 14417.98 4070.49 14332.39 4070.49C14256.81 4070.49 14187.8 4052.95 14125.34 4017.86C14062.88 3982.78 14013.33 3934 13976.69 3871.53C13940.07 3809.08 13921.75 3738.52 13921.75 3659.87C13921.75 3581.22 13940.06 3510.66 13976.69 3448.21ZM15136.29 4073.99C15076.15 4073.99 15021.78 4060.31 14973.2 4032.93C14924.61 4005.56 14886.45 3967 14858.68 3917.26C14830.92 3867.52 14817.04 3809.89 14817.04 3744.33C14817.04 3679.56 14831.31 3622.1 14859.84 3571.98C14888.38 3521.85 14927.31 3483.3 14976.67 3456.3C15026.02 3429.31 15081.16 3415.82 15142.08 3415.82C15203 3415.82 15258.14 3429.31 15307.49 3456.3C15356.85 3483.3 15395.78 3521.85 15424.32 3571.98C15452.85 3622.1 15467.12 3679.55 15467.12 3744.33C15467.12 3809.1 15452.47 3866.56 15423.16 3916.68C15393.86 3966.81 15353.95 4005.56 15303.44 4032.93C15252.93 4060.31 15197.22 4073.99 15136.29 4073.99ZM15231.72 3935.19C15261.42 3919 15285.51 3894.71 15304.02 3862.32C15322.52 3829.92 15331.78 3790.6 15331.78 3744.33C15331.78 3698.06 15322.91 3658.93 15305.18 3626.92C15287.44 3594.92 15263.92 3570.82 15234.62 3554.63C15205.31 3538.44 15173.7 3530.34 15139.77 3530.34C15105.83 3530.34 15074.41 3538.44 15045.49 3554.63C15016.57 3570.82 14993.63 3594.92 14976.67 3626.92C14959.71 3658.93 14951.22 3698.06 14951.22 3744.33C14951.22 3812.96 14968.76 3865.98 15003.85 3903.38C15038.94 3940.77 15083.09 3959.48 15136.29 3959.48C15170.23 3959.48 15202.03 3951.38 15231.72 3935.19ZM15651.03 4071.68C15627.13 4071.68 15607.08 4063.58 15590.89 4047.39C15574.7 4031.2 15566.6 4011.15 15566.6 3987.24C15566.6 3963.34 15574.7 3943.29 15590.89 3927.1C15607.08 3910.91 15627.13 3902.81 15651.03 3902.81C15674.17 3902.81 15693.83 3910.91 15710.02 3927.1C15726.21 3943.29 15734.31 3963.34 15734.31 3987.24C15734.31 4011.15 15726.21 4031.2 15710.02 4047.39C15693.83 4063.58 15674.17 4071.68 15651.03 4071.68Z" />
		</g>
		<path id="Layer" fill-rule="evenodd" class="shp3" d="M2381.69 4711.38C1094.88 4711.38 48 3664.51 48 2377.73C48 1090.95 1094.88 43.99 2381.69 43.99C3668.49 43.99 4715.33 1090.95 4715.33 2377.73C4715.33 3664.51 3668.49 4711.38 2381.69 4711.38ZM249.44 2377.73C249.44 3553.41 1205.95 4509.93 2381.69 4509.93C3557.37 4509.93 4513.93 3553.41 4513.93 2377.73C4513.93 1201.93 3557.37 245.48 2381.69 245.48C1205.95 245.48 249.44 1201.93 249.44 2377.73Z" />
	</g>
</svg>